G04 #@! TF.GenerationSoftware,KiCad,Pcbnew,(5.1.6)-1*
G04 #@! TF.CreationDate,2020-08-11T14:22:33+03:00*
G04 #@! TF.ProjectId,Black Magic Probe V2.0,426c6163-6b20-44d6-9167-69632050726f,rev?*
G04 #@! TF.SameCoordinates,Original*
G04 #@! TF.FileFunction,Legend,Top*
G04 #@! TF.FilePolarity,Positive*
%FSLAX46Y46*%
G04 Gerber Fmt 4.6, Leading zero omitted, Abs format (unit mm)*
G04 Created by KiCad (PCBNEW (5.1.6)-1) date 2020-08-11 14:22:33*
%MOMM*%
%LPD*%
G01*
G04 APERTURE LIST*
%ADD10C,0.100000*%
%ADD11C,0.120000*%
%ADD12C,0.300000*%
%ADD13C,0.150000*%
G04 APERTURE END LIST*
D10*
G36*
X173750000Y-116500000D02*
G01*
X173250000Y-116500000D01*
X173250000Y-109000000D01*
X173750000Y-109000000D01*
X173750000Y-116500000D01*
G37*
X173750000Y-116500000D02*
X173250000Y-116500000D01*
X173250000Y-109000000D01*
X173750000Y-109000000D01*
X173750000Y-116500000D01*
D11*
X176500000Y-109000000D02*
X176500000Y-116500000D01*
X173750000Y-109000000D02*
X173750000Y-116500000D01*
X173250000Y-109000000D02*
X180500000Y-109000000D01*
X180500000Y-107500000D02*
X173250000Y-107500000D01*
X180500000Y-116500000D02*
X180500000Y-107500000D01*
X173250000Y-116500000D02*
X180500000Y-116500000D01*
X170801333Y-107866666D02*
X171267999Y-108566666D01*
X171267999Y-107866666D02*
X170801333Y-108566666D01*
X171901333Y-108566666D02*
X171501333Y-108566666D01*
X171701333Y-108566666D02*
X171701333Y-107866666D01*
X171634666Y-107966666D01*
X171567999Y-108033333D01*
X171501333Y-108066666D01*
X172734666Y-108566666D02*
X172734666Y-107866666D01*
X173001333Y-107866666D01*
X173067999Y-107900000D01*
X173101333Y-107933333D01*
X173134666Y-108000000D01*
X173134666Y-108100000D01*
X173101333Y-108166666D01*
X173067999Y-108200000D01*
X173001333Y-108233333D01*
X172734666Y-108233333D01*
X173434666Y-108566666D02*
X173434666Y-107866666D01*
X173767999Y-108566666D02*
X173767999Y-107866666D01*
X174167999Y-108566666D01*
X174167999Y-107866666D01*
X174634666Y-107866666D02*
X174767999Y-107866666D01*
X174834666Y-107900000D01*
X174901333Y-107966666D01*
X174934666Y-108100000D01*
X174934666Y-108333333D01*
X174901333Y-108466666D01*
X174834666Y-108533333D01*
X174767999Y-108566666D01*
X174634666Y-108566666D01*
X174567999Y-108533333D01*
X174501333Y-108466666D01*
X174467999Y-108333333D01*
X174467999Y-108100000D01*
X174501333Y-107966666D01*
X174567999Y-107900000D01*
X174634666Y-107866666D01*
X175234666Y-107866666D02*
X175234666Y-108433333D01*
X175267999Y-108500000D01*
X175301333Y-108533333D01*
X175367999Y-108566666D01*
X175501333Y-108566666D01*
X175567999Y-108533333D01*
X175601333Y-108500000D01*
X175634666Y-108433333D01*
X175634666Y-107866666D01*
X175867999Y-107866666D02*
X176267999Y-107866666D01*
X176067999Y-108566666D02*
X176067999Y-107866666D01*
X166500000Y-107500000D02*
X166500000Y-109000000D01*
X173250000Y-107500000D02*
X166500000Y-107500000D01*
X170500000Y-109000000D02*
X170500000Y-116500000D01*
X166500000Y-116500000D02*
X166500000Y-109000000D01*
X173250000Y-116500000D02*
X166500000Y-116500000D01*
X173250000Y-109000000D02*
X173250000Y-116500000D01*
X166500000Y-109000000D02*
X173250000Y-109000000D01*
X170894666Y-112366666D02*
X171294666Y-112366666D01*
X171094666Y-113066666D02*
X171094666Y-112366666D01*
X171528000Y-113066666D02*
X171528000Y-112366666D01*
X171694666Y-112366666D01*
X171794666Y-112400000D01*
X171861333Y-112466666D01*
X171894666Y-112533333D01*
X171928000Y-112666666D01*
X171928000Y-112766666D01*
X171894666Y-112900000D01*
X171861333Y-112966666D01*
X171794666Y-113033333D01*
X171694666Y-113066666D01*
X171528000Y-113066666D01*
X172361333Y-112366666D02*
X172494666Y-112366666D01*
X172561333Y-112400000D01*
X172628000Y-112466666D01*
X172661333Y-112600000D01*
X172661333Y-112833333D01*
X172628000Y-112966666D01*
X172561333Y-113033333D01*
X172494666Y-113066666D01*
X172361333Y-113066666D01*
X172294666Y-113033333D01*
X172228000Y-112966666D01*
X172194666Y-112833333D01*
X172194666Y-112600000D01*
X172228000Y-112466666D01*
X172294666Y-112400000D01*
X172361333Y-112366666D01*
X170894666Y-113866666D02*
X171294666Y-113866666D01*
X171094666Y-114566666D02*
X171094666Y-113866666D01*
X171928000Y-114500000D02*
X171894666Y-114533333D01*
X171794666Y-114566666D01*
X171728000Y-114566666D01*
X171628000Y-114533333D01*
X171561333Y-114466666D01*
X171528000Y-114400000D01*
X171494666Y-114266666D01*
X171494666Y-114166666D01*
X171528000Y-114033333D01*
X171561333Y-113966666D01*
X171628000Y-113900000D01*
X171728000Y-113866666D01*
X171794666Y-113866666D01*
X171894666Y-113900000D01*
X171928000Y-113933333D01*
X172228000Y-114566666D02*
X172228000Y-113866666D01*
X172628000Y-114566666D02*
X172328000Y-114166666D01*
X172628000Y-113866666D02*
X172228000Y-114266666D01*
X170894666Y-115366666D02*
X171294666Y-115366666D01*
X171094666Y-116066666D02*
X171094666Y-115366666D01*
X171528000Y-116066666D02*
X171528000Y-115366666D01*
X171761333Y-115866666D01*
X171994666Y-115366666D01*
X171994666Y-116066666D01*
X172294666Y-116033333D02*
X172394666Y-116066666D01*
X172561333Y-116066666D01*
X172628000Y-116033333D01*
X172661333Y-116000000D01*
X172694666Y-115933333D01*
X172694666Y-115866666D01*
X172661333Y-115800000D01*
X172628000Y-115766666D01*
X172561333Y-115733333D01*
X172428000Y-115700000D01*
X172361333Y-115666666D01*
X172328000Y-115633333D01*
X172294666Y-115566666D01*
X172294666Y-115500000D01*
X172328000Y-115433333D01*
X172361333Y-115400000D01*
X172428000Y-115366666D01*
X172594666Y-115366666D01*
X172694666Y-115400000D01*
X170894666Y-110866666D02*
X171294666Y-110866666D01*
X171094666Y-111566666D02*
X171094666Y-110866666D01*
X171528000Y-111566666D02*
X171528000Y-110866666D01*
X171694666Y-110866666D01*
X171794666Y-110900000D01*
X171861333Y-110966666D01*
X171894666Y-111033333D01*
X171928000Y-111166666D01*
X171928000Y-111266666D01*
X171894666Y-111400000D01*
X171861333Y-111466666D01*
X171794666Y-111533333D01*
X171694666Y-111566666D01*
X171528000Y-111566666D01*
X172228000Y-111566666D02*
X172228000Y-110866666D01*
X171394666Y-110066666D02*
X171161333Y-109733333D01*
X170994666Y-110066666D02*
X170994666Y-109366666D01*
X171261333Y-109366666D01*
X171328000Y-109400000D01*
X171361333Y-109433333D01*
X171394666Y-109500000D01*
X171394666Y-109600000D01*
X171361333Y-109666666D01*
X171328000Y-109700000D01*
X171261333Y-109733333D01*
X170994666Y-109733333D01*
X171661333Y-110033333D02*
X171761333Y-110066666D01*
X171928000Y-110066666D01*
X171994666Y-110033333D01*
X172028000Y-110000000D01*
X172061333Y-109933333D01*
X172061333Y-109866666D01*
X172028000Y-109800000D01*
X171994666Y-109766666D01*
X171928000Y-109733333D01*
X171794666Y-109700000D01*
X171728000Y-109666666D01*
X171694666Y-109633333D01*
X171661333Y-109566666D01*
X171661333Y-109500000D01*
X171694666Y-109433333D01*
X171728000Y-109400000D01*
X171794666Y-109366666D01*
X171961333Y-109366666D01*
X172061333Y-109400000D01*
X172261333Y-109366666D02*
X172661333Y-109366666D01*
X172461333Y-110066666D02*
X172461333Y-109366666D01*
X177611333Y-113900000D02*
X177544666Y-113866666D01*
X177444666Y-113866666D01*
X177344666Y-113900000D01*
X177278000Y-113966666D01*
X177244666Y-114033333D01*
X177211333Y-114166666D01*
X177211333Y-114266666D01*
X177244666Y-114400000D01*
X177278000Y-114466666D01*
X177344666Y-114533333D01*
X177444666Y-114566666D01*
X177511333Y-114566666D01*
X177611333Y-114533333D01*
X177644666Y-114500000D01*
X177644666Y-114266666D01*
X177511333Y-114266666D01*
X177944666Y-114566666D02*
X177944666Y-113866666D01*
X178344666Y-114566666D01*
X178344666Y-113866666D01*
X178678000Y-114566666D02*
X178678000Y-113866666D01*
X178844666Y-113866666D01*
X178944666Y-113900000D01*
X179011333Y-113966666D01*
X179044666Y-114033333D01*
X179078000Y-114166666D01*
X179078000Y-114266666D01*
X179044666Y-114400000D01*
X179011333Y-114466666D01*
X178944666Y-114533333D01*
X178844666Y-114566666D01*
X178678000Y-114566666D01*
X177244666Y-116066666D02*
X177244666Y-115366666D01*
X177511333Y-115366666D01*
X177578000Y-115400000D01*
X177611333Y-115433333D01*
X177644666Y-115500000D01*
X177644666Y-115600000D01*
X177611333Y-115666666D01*
X177578000Y-115700000D01*
X177511333Y-115733333D01*
X177244666Y-115733333D01*
X177878000Y-115366666D02*
X178044666Y-116066666D01*
X178178000Y-115566666D01*
X178311333Y-116066666D01*
X178478000Y-115366666D01*
X179144666Y-116066666D02*
X178911333Y-115733333D01*
X178744666Y-116066666D02*
X178744666Y-115366666D01*
X179011333Y-115366666D01*
X179078000Y-115400000D01*
X179111333Y-115433333D01*
X179144666Y-115500000D01*
X179144666Y-115600000D01*
X179111333Y-115666666D01*
X179078000Y-115700000D01*
X179011333Y-115733333D01*
X178744666Y-115733333D01*
X177611333Y-112400000D02*
X177544666Y-112366666D01*
X177444666Y-112366666D01*
X177344666Y-112400000D01*
X177278000Y-112466666D01*
X177244666Y-112533333D01*
X177211333Y-112666666D01*
X177211333Y-112766666D01*
X177244666Y-112900000D01*
X177278000Y-112966666D01*
X177344666Y-113033333D01*
X177444666Y-113066666D01*
X177511333Y-113066666D01*
X177611333Y-113033333D01*
X177644666Y-113000000D01*
X177644666Y-112766666D01*
X177511333Y-112766666D01*
X177944666Y-113066666D02*
X177944666Y-112366666D01*
X178344666Y-113066666D01*
X178344666Y-112366666D01*
X178678000Y-113066666D02*
X178678000Y-112366666D01*
X178844666Y-112366666D01*
X178944666Y-112400000D01*
X179011333Y-112466666D01*
X179044666Y-112533333D01*
X179078000Y-112666666D01*
X179078000Y-112766666D01*
X179044666Y-112900000D01*
X179011333Y-112966666D01*
X178944666Y-113033333D01*
X178844666Y-113066666D01*
X178678000Y-113066666D01*
X177144666Y-110866666D02*
X177544666Y-110866666D01*
X177344666Y-111566666D02*
X177344666Y-110866666D01*
X177711333Y-110866666D02*
X178178000Y-111566666D01*
X178178000Y-110866666D02*
X177711333Y-111566666D01*
X178444666Y-111566666D02*
X178444666Y-110866666D01*
X178611333Y-110866666D01*
X178711333Y-110900000D01*
X178778000Y-110966666D01*
X178811333Y-111033333D01*
X178844666Y-111166666D01*
X178844666Y-111266666D01*
X178811333Y-111400000D01*
X178778000Y-111466666D01*
X178711333Y-111533333D01*
X178611333Y-111566666D01*
X178444666Y-111566666D01*
X179511333Y-111566666D02*
X179111333Y-111566666D01*
X179311333Y-111566666D02*
X179311333Y-110866666D01*
X179244666Y-110966666D01*
X179178000Y-111033333D01*
X179111333Y-111066666D01*
X177644666Y-110066666D02*
X177411333Y-109733333D01*
X177244666Y-110066666D02*
X177244666Y-109366666D01*
X177511333Y-109366666D01*
X177578000Y-109400000D01*
X177611333Y-109433333D01*
X177644666Y-109500000D01*
X177644666Y-109600000D01*
X177611333Y-109666666D01*
X177578000Y-109700000D01*
X177511333Y-109733333D01*
X177244666Y-109733333D01*
X177878000Y-109366666D02*
X178344666Y-110066666D01*
X178344666Y-109366666D02*
X177878000Y-110066666D01*
X178611333Y-110066666D02*
X178611333Y-109366666D01*
X178778000Y-109366666D01*
X178878000Y-109400000D01*
X178944666Y-109466666D01*
X178978000Y-109533333D01*
X179011333Y-109666666D01*
X179011333Y-109766666D01*
X178978000Y-109900000D01*
X178944666Y-109966666D01*
X178878000Y-110033333D01*
X178778000Y-110066666D01*
X178611333Y-110066666D01*
X179678000Y-110066666D02*
X179278000Y-110066666D01*
X179478000Y-110066666D02*
X179478000Y-109366666D01*
X179411333Y-109466666D01*
X179344666Y-109533333D01*
X179278000Y-109566666D01*
X174244666Y-110066666D02*
X174244666Y-109366666D01*
X174411333Y-109366666D01*
X174511333Y-109400000D01*
X174578000Y-109466666D01*
X174611333Y-109533333D01*
X174644666Y-109666666D01*
X174644666Y-109766666D01*
X174611333Y-109900000D01*
X174578000Y-109966666D01*
X174511333Y-110033333D01*
X174411333Y-110066666D01*
X174244666Y-110066666D01*
X174944666Y-110066666D02*
X174944666Y-109366666D01*
X175411333Y-109366666D02*
X175544666Y-109366666D01*
X175611333Y-109400000D01*
X175678000Y-109466666D01*
X175711333Y-109600000D01*
X175711333Y-109833333D01*
X175678000Y-109966666D01*
X175611333Y-110033333D01*
X175544666Y-110066666D01*
X175411333Y-110066666D01*
X175344666Y-110033333D01*
X175278000Y-109966666D01*
X175244666Y-109833333D01*
X175244666Y-109600000D01*
X175278000Y-109466666D01*
X175344666Y-109400000D01*
X175411333Y-109366666D01*
X166894666Y-109366666D02*
X167294666Y-109366666D01*
X167094666Y-110066666D02*
X167094666Y-109366666D01*
X167461333Y-109366666D02*
X167928000Y-110066666D01*
X167928000Y-109366666D02*
X167461333Y-110066666D01*
X168194666Y-110066666D02*
X168194666Y-109366666D01*
X168361333Y-109366666D01*
X168461333Y-109400000D01*
X168528000Y-109466666D01*
X168561333Y-109533333D01*
X168594666Y-109666666D01*
X168594666Y-109766666D01*
X168561333Y-109900000D01*
X168528000Y-109966666D01*
X168461333Y-110033333D01*
X168361333Y-110066666D01*
X168194666Y-110066666D01*
X168861333Y-109433333D02*
X168894666Y-109400000D01*
X168961333Y-109366666D01*
X169128000Y-109366666D01*
X169194666Y-109400000D01*
X169228000Y-109433333D01*
X169261333Y-109500000D01*
X169261333Y-109566666D01*
X169228000Y-109666666D01*
X168828000Y-110066666D01*
X169261333Y-110066666D01*
X174644666Y-111500000D02*
X174611333Y-111533333D01*
X174511333Y-111566666D01*
X174444666Y-111566666D01*
X174344666Y-111533333D01*
X174278000Y-111466666D01*
X174244666Y-111400000D01*
X174211333Y-111266666D01*
X174211333Y-111166666D01*
X174244666Y-111033333D01*
X174278000Y-110966666D01*
X174344666Y-110900000D01*
X174444666Y-110866666D01*
X174511333Y-110866666D01*
X174611333Y-110900000D01*
X174644666Y-110933333D01*
X175278000Y-111566666D02*
X174944666Y-111566666D01*
X174944666Y-110866666D01*
X175511333Y-111566666D02*
X175511333Y-110866666D01*
X175911333Y-111566666D02*
X175611333Y-111166666D01*
X175911333Y-110866666D02*
X175511333Y-111266666D01*
X167394666Y-111566666D02*
X167161333Y-111233333D01*
X166994666Y-111566666D02*
X166994666Y-110866666D01*
X167261333Y-110866666D01*
X167328000Y-110900000D01*
X167361333Y-110933333D01*
X167394666Y-111000000D01*
X167394666Y-111100000D01*
X167361333Y-111166666D01*
X167328000Y-111200000D01*
X167261333Y-111233333D01*
X166994666Y-111233333D01*
X167628000Y-110866666D02*
X168094666Y-111566666D01*
X168094666Y-110866666D02*
X167628000Y-111566666D01*
X168361333Y-111566666D02*
X168361333Y-110866666D01*
X168528000Y-110866666D01*
X168628000Y-110900000D01*
X168694666Y-110966666D01*
X168728000Y-111033333D01*
X168761333Y-111166666D01*
X168761333Y-111266666D01*
X168728000Y-111400000D01*
X168694666Y-111466666D01*
X168628000Y-111533333D01*
X168528000Y-111566666D01*
X168361333Y-111566666D01*
X169028000Y-110933333D02*
X169061333Y-110900000D01*
X169128000Y-110866666D01*
X169294666Y-110866666D01*
X169361333Y-110900000D01*
X169394666Y-110933333D01*
X169428000Y-111000000D01*
X169428000Y-111066666D01*
X169394666Y-111166666D01*
X168994666Y-111566666D01*
X169428000Y-111566666D01*
X174611333Y-113900000D02*
X174544666Y-113866666D01*
X174444666Y-113866666D01*
X174344666Y-113900000D01*
X174278000Y-113966666D01*
X174244666Y-114033333D01*
X174211333Y-114166666D01*
X174211333Y-114266666D01*
X174244666Y-114400000D01*
X174278000Y-114466666D01*
X174344666Y-114533333D01*
X174444666Y-114566666D01*
X174511333Y-114566666D01*
X174611333Y-114533333D01*
X174644666Y-114500000D01*
X174644666Y-114266666D01*
X174511333Y-114266666D01*
X174944666Y-114566666D02*
X174944666Y-113866666D01*
X175344666Y-114566666D01*
X175344666Y-113866666D01*
X175678000Y-114566666D02*
X175678000Y-113866666D01*
X175844666Y-113866666D01*
X175944666Y-113900000D01*
X176011333Y-113966666D01*
X176044666Y-114033333D01*
X176078000Y-114166666D01*
X176078000Y-114266666D01*
X176044666Y-114400000D01*
X176011333Y-114466666D01*
X175944666Y-114533333D01*
X175844666Y-114566666D01*
X175678000Y-114566666D01*
X166961333Y-113033333D02*
X167061333Y-113066666D01*
X167228000Y-113066666D01*
X167294666Y-113033333D01*
X167328000Y-113000000D01*
X167361333Y-112933333D01*
X167361333Y-112866666D01*
X167328000Y-112800000D01*
X167294666Y-112766666D01*
X167228000Y-112733333D01*
X167094666Y-112700000D01*
X167028000Y-112666666D01*
X166994666Y-112633333D01*
X166961333Y-112566666D01*
X166961333Y-112500000D01*
X166994666Y-112433333D01*
X167028000Y-112400000D01*
X167094666Y-112366666D01*
X167261333Y-112366666D01*
X167361333Y-112400000D01*
X167594666Y-112366666D02*
X167761333Y-113066666D01*
X167894666Y-112566666D01*
X168028000Y-113066666D01*
X168194666Y-112366666D01*
X168594666Y-112366666D02*
X168728000Y-112366666D01*
X168794666Y-112400000D01*
X168861333Y-112466666D01*
X168894666Y-112600000D01*
X168894666Y-112833333D01*
X168861333Y-112966666D01*
X168794666Y-113033333D01*
X168728000Y-113066666D01*
X168594666Y-113066666D01*
X168528000Y-113033333D01*
X168461333Y-112966666D01*
X168428000Y-112833333D01*
X168428000Y-112600000D01*
X168461333Y-112466666D01*
X168528000Y-112400000D01*
X168594666Y-112366666D01*
X174611333Y-112400000D02*
X174544666Y-112366666D01*
X174444666Y-112366666D01*
X174344666Y-112400000D01*
X174278000Y-112466666D01*
X174244666Y-112533333D01*
X174211333Y-112666666D01*
X174211333Y-112766666D01*
X174244666Y-112900000D01*
X174278000Y-112966666D01*
X174344666Y-113033333D01*
X174444666Y-113066666D01*
X174511333Y-113066666D01*
X174611333Y-113033333D01*
X174644666Y-113000000D01*
X174644666Y-112766666D01*
X174511333Y-112766666D01*
X174944666Y-113066666D02*
X174944666Y-112366666D01*
X175344666Y-113066666D01*
X175344666Y-112366666D01*
X175678000Y-113066666D02*
X175678000Y-112366666D01*
X175844666Y-112366666D01*
X175944666Y-112400000D01*
X176011333Y-112466666D01*
X176044666Y-112533333D01*
X176078000Y-112666666D01*
X176078000Y-112766666D01*
X176044666Y-112900000D01*
X176011333Y-112966666D01*
X175944666Y-113033333D01*
X175844666Y-113066666D01*
X175678000Y-113066666D01*
X166961333Y-114533333D02*
X167061333Y-114566666D01*
X167228000Y-114566666D01*
X167294666Y-114533333D01*
X167328000Y-114500000D01*
X167361333Y-114433333D01*
X167361333Y-114366666D01*
X167328000Y-114300000D01*
X167294666Y-114266666D01*
X167228000Y-114233333D01*
X167094666Y-114200000D01*
X167028000Y-114166666D01*
X166994666Y-114133333D01*
X166961333Y-114066666D01*
X166961333Y-114000000D01*
X166994666Y-113933333D01*
X167028000Y-113900000D01*
X167094666Y-113866666D01*
X167261333Y-113866666D01*
X167361333Y-113900000D01*
X167594666Y-113866666D02*
X167761333Y-114566666D01*
X167894666Y-114066666D01*
X168028000Y-114566666D01*
X168194666Y-113866666D01*
X168861333Y-114500000D02*
X168828000Y-114533333D01*
X168728000Y-114566666D01*
X168661333Y-114566666D01*
X168561333Y-114533333D01*
X168494666Y-114466666D01*
X168461333Y-114400000D01*
X168428000Y-114266666D01*
X168428000Y-114166666D01*
X168461333Y-114033333D01*
X168494666Y-113966666D01*
X168561333Y-113900000D01*
X168661333Y-113866666D01*
X168728000Y-113866666D01*
X168828000Y-113900000D01*
X168861333Y-113933333D01*
X169494666Y-114566666D02*
X169161333Y-114566666D01*
X169161333Y-113866666D01*
X169728000Y-114566666D02*
X169728000Y-113866666D01*
X170128000Y-114566666D02*
X169828000Y-114166666D01*
X170128000Y-113866666D02*
X169728000Y-114266666D01*
X174244666Y-116066666D02*
X174244666Y-115366666D01*
X174511333Y-115366666D01*
X174578000Y-115400000D01*
X174611333Y-115433333D01*
X174644666Y-115500000D01*
X174644666Y-115600000D01*
X174611333Y-115666666D01*
X174578000Y-115700000D01*
X174511333Y-115733333D01*
X174244666Y-115733333D01*
X174878000Y-115366666D02*
X175044666Y-116066666D01*
X175178000Y-115566666D01*
X175311333Y-116066666D01*
X175478000Y-115366666D01*
X176144666Y-116066666D02*
X175911333Y-115733333D01*
X175744666Y-116066666D02*
X175744666Y-115366666D01*
X176011333Y-115366666D01*
X176078000Y-115400000D01*
X176111333Y-115433333D01*
X176144666Y-115500000D01*
X176144666Y-115600000D01*
X176111333Y-115666666D01*
X176078000Y-115700000D01*
X176011333Y-115733333D01*
X175744666Y-115733333D01*
X166961333Y-116033333D02*
X167061333Y-116066666D01*
X167228000Y-116066666D01*
X167294666Y-116033333D01*
X167328000Y-116000000D01*
X167361333Y-115933333D01*
X167361333Y-115866666D01*
X167328000Y-115800000D01*
X167294666Y-115766666D01*
X167228000Y-115733333D01*
X167094666Y-115700000D01*
X167028000Y-115666666D01*
X166994666Y-115633333D01*
X166961333Y-115566666D01*
X166961333Y-115500000D01*
X166994666Y-115433333D01*
X167028000Y-115400000D01*
X167094666Y-115366666D01*
X167261333Y-115366666D01*
X167361333Y-115400000D01*
X167594666Y-115366666D02*
X167761333Y-116066666D01*
X167894666Y-115566666D01*
X168028000Y-116066666D01*
X168194666Y-115366666D01*
X168461333Y-116066666D02*
X168461333Y-115366666D01*
X168628000Y-115366666D01*
X168728000Y-115400000D01*
X168794666Y-115466666D01*
X168828000Y-115533333D01*
X168861333Y-115666666D01*
X168861333Y-115766666D01*
X168828000Y-115900000D01*
X168794666Y-115966666D01*
X168728000Y-116033333D01*
X168628000Y-116066666D01*
X168461333Y-116066666D01*
X169161333Y-116066666D02*
X169161333Y-115366666D01*
X169628000Y-115366666D02*
X169761333Y-115366666D01*
X169828000Y-115400000D01*
X169894666Y-115466666D01*
X169928000Y-115600000D01*
X169928000Y-115833333D01*
X169894666Y-115966666D01*
X169828000Y-116033333D01*
X169761333Y-116066666D01*
X169628000Y-116066666D01*
X169561333Y-116033333D01*
X169494666Y-115966666D01*
X169461333Y-115833333D01*
X169461333Y-115600000D01*
X169494666Y-115466666D01*
X169561333Y-115400000D01*
X169628000Y-115366666D01*
D12*
X134336214Y-123297071D02*
X134336214Y-121797071D01*
X134979071Y-123225642D02*
X135193357Y-123297071D01*
X135550500Y-123297071D01*
X135693357Y-123225642D01*
X135764785Y-123154214D01*
X135836214Y-123011357D01*
X135836214Y-122868500D01*
X135764785Y-122725642D01*
X135693357Y-122654214D01*
X135550500Y-122582785D01*
X135264785Y-122511357D01*
X135121928Y-122439928D01*
X135050500Y-122368500D01*
X134979071Y-122225642D01*
X134979071Y-122082785D01*
X135050500Y-121939928D01*
X135121928Y-121868500D01*
X135264785Y-121797071D01*
X135621928Y-121797071D01*
X135836214Y-121868500D01*
X136764785Y-121797071D02*
X137050500Y-121797071D01*
X137193357Y-121868500D01*
X137336214Y-122011357D01*
X137407642Y-122297071D01*
X137407642Y-122797071D01*
X137336214Y-123082785D01*
X137193357Y-123225642D01*
X137050500Y-123297071D01*
X136764785Y-123297071D01*
X136621928Y-123225642D01*
X136479071Y-123082785D01*
X136407642Y-122797071D01*
X136407642Y-122297071D01*
X136479071Y-122011357D01*
X136621928Y-121868500D01*
X136764785Y-121797071D01*
X139693357Y-122511357D02*
X139907642Y-122582785D01*
X139979071Y-122654214D01*
X140050500Y-122797071D01*
X140050500Y-123011357D01*
X139979071Y-123154214D01*
X139907642Y-123225642D01*
X139764785Y-123297071D01*
X139193357Y-123297071D01*
X139193357Y-121797071D01*
X139693357Y-121797071D01*
X139836214Y-121868500D01*
X139907642Y-121939928D01*
X139979071Y-122082785D01*
X139979071Y-122225642D01*
X139907642Y-122368500D01*
X139836214Y-122439928D01*
X139693357Y-122511357D01*
X139193357Y-122511357D01*
X140907642Y-123297071D02*
X140764785Y-123225642D01*
X140693357Y-123082785D01*
X140693357Y-121797071D01*
X142121928Y-123297071D02*
X142121928Y-122511357D01*
X142050500Y-122368500D01*
X141907642Y-122297071D01*
X141621928Y-122297071D01*
X141479071Y-122368500D01*
X142121928Y-123225642D02*
X141979071Y-123297071D01*
X141621928Y-123297071D01*
X141479071Y-123225642D01*
X141407642Y-123082785D01*
X141407642Y-122939928D01*
X141479071Y-122797071D01*
X141621928Y-122725642D01*
X141979071Y-122725642D01*
X142121928Y-122654214D01*
X143479071Y-123225642D02*
X143336214Y-123297071D01*
X143050500Y-123297071D01*
X142907642Y-123225642D01*
X142836214Y-123154214D01*
X142764785Y-123011357D01*
X142764785Y-122582785D01*
X142836214Y-122439928D01*
X142907642Y-122368500D01*
X143050500Y-122297071D01*
X143336214Y-122297071D01*
X143479071Y-122368500D01*
X144121928Y-123297071D02*
X144121928Y-121797071D01*
X144264785Y-122725642D02*
X144693357Y-123297071D01*
X144693357Y-122297071D02*
X144121928Y-122868500D01*
X146479071Y-123297071D02*
X146479071Y-121797071D01*
X146979071Y-122868500D01*
X147479071Y-121797071D01*
X147479071Y-123297071D01*
X148836214Y-123297071D02*
X148836214Y-122511357D01*
X148764785Y-122368500D01*
X148621928Y-122297071D01*
X148336214Y-122297071D01*
X148193357Y-122368500D01*
X148836214Y-123225642D02*
X148693357Y-123297071D01*
X148336214Y-123297071D01*
X148193357Y-123225642D01*
X148121928Y-123082785D01*
X148121928Y-122939928D01*
X148193357Y-122797071D01*
X148336214Y-122725642D01*
X148693357Y-122725642D01*
X148836214Y-122654214D01*
X150193357Y-122297071D02*
X150193357Y-123511357D01*
X150121928Y-123654214D01*
X150050500Y-123725642D01*
X149907642Y-123797071D01*
X149693357Y-123797071D01*
X149550500Y-123725642D01*
X150193357Y-123225642D02*
X150050500Y-123297071D01*
X149764785Y-123297071D01*
X149621928Y-123225642D01*
X149550500Y-123154214D01*
X149479071Y-123011357D01*
X149479071Y-122582785D01*
X149550500Y-122439928D01*
X149621928Y-122368500D01*
X149764785Y-122297071D01*
X150050500Y-122297071D01*
X150193357Y-122368500D01*
X150907642Y-123297071D02*
X150907642Y-122297071D01*
X150907642Y-121797071D02*
X150836214Y-121868500D01*
X150907642Y-121939928D01*
X150979071Y-121868500D01*
X150907642Y-121797071D01*
X150907642Y-121939928D01*
X152264785Y-123225642D02*
X152121928Y-123297071D01*
X151836214Y-123297071D01*
X151693357Y-123225642D01*
X151621928Y-123154214D01*
X151550500Y-123011357D01*
X151550500Y-122582785D01*
X151621928Y-122439928D01*
X151693357Y-122368500D01*
X151836214Y-122297071D01*
X152121928Y-122297071D01*
X152264785Y-122368500D01*
X154050500Y-123297071D02*
X154050500Y-121797071D01*
X154621928Y-121797071D01*
X154764785Y-121868500D01*
X154836214Y-121939928D01*
X154907642Y-122082785D01*
X154907642Y-122297071D01*
X154836214Y-122439928D01*
X154764785Y-122511357D01*
X154621928Y-122582785D01*
X154050500Y-122582785D01*
X155550500Y-123297071D02*
X155550500Y-122297071D01*
X155550500Y-122582785D02*
X155621928Y-122439928D01*
X155693357Y-122368500D01*
X155836214Y-122297071D01*
X155979071Y-122297071D01*
X156693357Y-123297071D02*
X156550500Y-123225642D01*
X156479071Y-123154214D01*
X156407642Y-123011357D01*
X156407642Y-122582785D01*
X156479071Y-122439928D01*
X156550500Y-122368500D01*
X156693357Y-122297071D01*
X156907642Y-122297071D01*
X157050500Y-122368500D01*
X157121928Y-122439928D01*
X157193357Y-122582785D01*
X157193357Y-123011357D01*
X157121928Y-123154214D01*
X157050500Y-123225642D01*
X156907642Y-123297071D01*
X156693357Y-123297071D01*
X157836214Y-123297071D02*
X157836214Y-121797071D01*
X157836214Y-122368500D02*
X157979071Y-122297071D01*
X158264785Y-122297071D01*
X158407642Y-122368500D01*
X158479071Y-122439928D01*
X158550500Y-122582785D01*
X158550500Y-123011357D01*
X158479071Y-123154214D01*
X158407642Y-123225642D01*
X158264785Y-123297071D01*
X157979071Y-123297071D01*
X157836214Y-123225642D01*
X159764785Y-123225642D02*
X159621928Y-123297071D01*
X159336214Y-123297071D01*
X159193357Y-123225642D01*
X159121928Y-123082785D01*
X159121928Y-122511357D01*
X159193357Y-122368500D01*
X159336214Y-122297071D01*
X159621928Y-122297071D01*
X159764785Y-122368500D01*
X159836214Y-122511357D01*
X159836214Y-122654214D01*
X159121928Y-122797071D01*
X161407642Y-121797071D02*
X161907642Y-123297071D01*
X162407642Y-121797071D01*
X162836214Y-121939928D02*
X162907642Y-121868500D01*
X163050500Y-121797071D01*
X163407642Y-121797071D01*
X163550500Y-121868500D01*
X163621928Y-121939928D01*
X163693357Y-122082785D01*
X163693357Y-122225642D01*
X163621928Y-122439928D01*
X162764785Y-123297071D01*
X163693357Y-123297071D01*
X164336214Y-123154214D02*
X164407642Y-123225642D01*
X164336214Y-123297071D01*
X164264785Y-123225642D01*
X164336214Y-123154214D01*
X164336214Y-123297071D01*
X165836214Y-123297071D02*
X164979071Y-123297071D01*
X165407642Y-123297071D02*
X165407642Y-121797071D01*
X165264785Y-122011357D01*
X165121928Y-122154214D01*
X164979071Y-122225642D01*
D11*
X106090000Y-96090000D02*
X108040000Y-96090000D01*
X110260000Y-96090000D02*
X113490000Y-96090000D01*
X115410000Y-96810000D02*
X115410000Y-97890000D01*
X115410000Y-102110000D02*
X115410000Y-103190000D01*
X110260000Y-103910000D02*
X113490000Y-103910000D01*
X106090000Y-103910000D02*
X108040000Y-103910000D01*
X115410000Y-97890000D02*
X115840000Y-97890000D01*
X106090000Y-103910000D02*
X106090000Y-96090000D01*
X168079922Y-104446000D02*
X168597078Y-104446000D01*
X168079922Y-105866000D02*
X168597078Y-105866000D01*
X138298422Y-94817000D02*
X138815578Y-94817000D01*
X138298422Y-93397000D02*
X138815578Y-93397000D01*
X136758000Y-86646936D02*
X136758000Y-87851064D01*
X138578000Y-86646936D02*
X138578000Y-87851064D01*
D13*
X159955000Y-106502000D02*
X159955000Y-103302000D01*
X159955000Y-103302000D02*
X161355000Y-103302000D01*
X161355000Y-103302000D02*
X161355000Y-106502000D01*
X161355000Y-106502000D02*
X159955000Y-106502000D01*
D11*
X122093000Y-99390000D02*
X122093000Y-95480000D01*
X122093000Y-95480000D02*
X120223000Y-95480000D01*
X120223000Y-95480000D02*
X120223000Y-99390000D01*
X127203000Y-102824000D02*
X123293000Y-102824000D01*
X123293000Y-102824000D02*
X123293000Y-104694000D01*
X123293000Y-104694000D02*
X127203000Y-104694000D01*
X130969936Y-102849000D02*
X132174064Y-102849000D01*
X130969936Y-104669000D02*
X132174064Y-104669000D01*
X150102500Y-108970578D02*
X150102500Y-108453422D01*
X151522500Y-108970578D02*
X151522500Y-108453422D01*
X168458000Y-82552000D02*
X167528000Y-82552000D01*
X165298000Y-82552000D02*
X166228000Y-82552000D01*
X165298000Y-82552000D02*
X165298000Y-84712000D01*
X168458000Y-82552000D02*
X168458000Y-84012000D01*
X168458000Y-86870000D02*
X167528000Y-86870000D01*
X165298000Y-86870000D02*
X166228000Y-86870000D01*
X165298000Y-86870000D02*
X165298000Y-89030000D01*
X168458000Y-86870000D02*
X168458000Y-88330000D01*
X188230000Y-106430000D02*
X186900000Y-106430000D01*
X188230000Y-105100000D02*
X188230000Y-106430000D01*
X185630000Y-106430000D02*
X183030000Y-106430000D01*
X185630000Y-103830000D02*
X185630000Y-106430000D01*
X188230000Y-103830000D02*
X185630000Y-103830000D01*
X183030000Y-106430000D02*
X183030000Y-93610000D01*
X188230000Y-103830000D02*
X188230000Y-93610000D01*
X188230000Y-93610000D02*
X183030000Y-93610000D01*
X139335000Y-111860000D02*
X136885000Y-111860000D01*
X137535000Y-115080000D02*
X139335000Y-115080000D01*
X142251000Y-85131000D02*
X139801000Y-85131000D01*
X140451000Y-88351000D02*
X142251000Y-88351000D01*
X117613000Y-112055000D02*
X115163000Y-112055000D01*
X115813000Y-115275000D02*
X117613000Y-115275000D01*
X141984000Y-83114000D02*
X140524000Y-83114000D01*
X141984000Y-79954000D02*
X139824000Y-79954000D01*
X141984000Y-79954000D02*
X141984000Y-80884000D01*
X141984000Y-83114000D02*
X141984000Y-82184000D01*
X124975000Y-105739000D02*
X123160000Y-105739000D01*
X124975000Y-105484000D02*
X124975000Y-105739000D01*
X128835000Y-105484000D02*
X124975000Y-105484000D01*
X132695000Y-105484000D02*
X132695000Y-105739000D01*
X128835000Y-105484000D02*
X132695000Y-105484000D01*
X124975000Y-116004000D02*
X124975000Y-115749000D01*
X128835000Y-116004000D02*
X124975000Y-116004000D01*
X132695000Y-116004000D02*
X132695000Y-115749000D01*
X128835000Y-116004000D02*
X132695000Y-116004000D01*
X152980000Y-120030000D02*
X159440000Y-120030000D01*
X152980000Y-115500000D02*
X152980000Y-118100000D01*
X152980000Y-113570000D02*
X159440000Y-113570000D01*
X159440000Y-115500000D02*
X159440000Y-118100000D01*
X152980000Y-113600000D02*
X152980000Y-113570000D01*
X152980000Y-120030000D02*
X152980000Y-120000000D01*
X159440000Y-120030000D02*
X159440000Y-120000000D01*
X159440000Y-113570000D02*
X159440000Y-113600000D01*
X177554000Y-99470000D02*
X178554000Y-99470000D01*
X177554000Y-96110000D02*
X178554000Y-96110000D01*
X177554000Y-103915000D02*
X178554000Y-103915000D01*
X177554000Y-100555000D02*
X178554000Y-100555000D01*
X120793578Y-111939000D02*
X120276422Y-111939000D01*
X120793578Y-113359000D02*
X120276422Y-113359000D01*
X120793578Y-113971000D02*
X120276422Y-113971000D01*
X120793578Y-115391000D02*
X120276422Y-115391000D01*
X150674000Y-88514422D02*
X150674000Y-89031578D01*
X152094000Y-88514422D02*
X152094000Y-89031578D01*
X153214000Y-88514422D02*
X153214000Y-89031578D01*
X154634000Y-88514422D02*
X154634000Y-89031578D01*
X155754000Y-88514422D02*
X155754000Y-89031578D01*
X157174000Y-88514422D02*
X157174000Y-89031578D01*
X148134000Y-88514422D02*
X148134000Y-89031578D01*
X149554000Y-88514422D02*
X149554000Y-89031578D01*
X167136578Y-90095000D02*
X166619422Y-90095000D01*
X167136578Y-91515000D02*
X166619422Y-91515000D01*
X136758000Y-81439936D02*
X136758000Y-82644064D01*
X138578000Y-81439936D02*
X138578000Y-82644064D01*
X133933000Y-82808578D02*
X133933000Y-82291422D01*
X132513000Y-82808578D02*
X132513000Y-82291422D01*
X134672000Y-82291422D02*
X134672000Y-82808578D01*
X136092000Y-82291422D02*
X136092000Y-82808578D01*
X138815578Y-99493000D02*
X138298422Y-99493000D01*
X138815578Y-100913000D02*
X138298422Y-100913000D01*
X138298422Y-102945000D02*
X138815578Y-102945000D01*
X138298422Y-101525000D02*
X138815578Y-101525000D01*
X142743422Y-115264000D02*
X143260578Y-115264000D01*
X142743422Y-113844000D02*
X143260578Y-113844000D01*
X142743422Y-113105000D02*
X143260578Y-113105000D01*
X142743422Y-111685000D02*
X143260578Y-111685000D01*
X142743422Y-117423000D02*
X143260578Y-117423000D01*
X142743422Y-116003000D02*
X143260578Y-116003000D01*
X138815578Y-95429000D02*
X138298422Y-95429000D01*
X138815578Y-96849000D02*
X138298422Y-96849000D01*
X138298422Y-111073000D02*
X138815578Y-111073000D01*
X138298422Y-109653000D02*
X138815578Y-109653000D01*
X138815578Y-107621000D02*
X138298422Y-107621000D01*
X138815578Y-109041000D02*
X138298422Y-109041000D01*
X172470578Y-85904000D02*
X171953422Y-85904000D01*
X172470578Y-87324000D02*
X171953422Y-87324000D01*
X171953422Y-85292000D02*
X172470578Y-85292000D01*
X171953422Y-83872000D02*
X172470578Y-83872000D01*
X171452000Y-90114000D02*
X172912000Y-90114000D01*
X171452000Y-93274000D02*
X173612000Y-93274000D01*
X171452000Y-93274000D02*
X171452000Y-92344000D01*
X171452000Y-90114000D02*
X171452000Y-91044000D01*
X150424000Y-82897000D02*
X150424000Y-85582000D01*
X152344000Y-82897000D02*
X150424000Y-82897000D01*
X152344000Y-85582000D02*
X152344000Y-82897000D01*
X152964000Y-82897000D02*
X152964000Y-85582000D01*
X154884000Y-82897000D02*
X152964000Y-82897000D01*
X154884000Y-85582000D02*
X154884000Y-82897000D01*
X155504000Y-82897000D02*
X155504000Y-85582000D01*
X157424000Y-82897000D02*
X155504000Y-82897000D01*
X157424000Y-85582000D02*
X157424000Y-82897000D01*
X147884000Y-82858500D02*
X147884000Y-85543500D01*
X149804000Y-82858500D02*
X147884000Y-82858500D01*
X149804000Y-85543500D02*
X149804000Y-82858500D01*
X138815578Y-105589000D02*
X138298422Y-105589000D01*
X138815578Y-107009000D02*
X138298422Y-107009000D01*
X120264422Y-110819000D02*
X120781578Y-110819000D01*
X120264422Y-109399000D02*
X120781578Y-109399000D01*
X145236000Y-89031578D02*
X145236000Y-88514422D01*
X143816000Y-89031578D02*
X143816000Y-88514422D01*
X120264422Y-107009000D02*
X120781578Y-107009000D01*
X120264422Y-105589000D02*
X120781578Y-105589000D01*
X147395000Y-89031578D02*
X147395000Y-88514422D01*
X145975000Y-89031578D02*
X145975000Y-88514422D01*
X145975000Y-84259922D02*
X145975000Y-84777078D01*
X147395000Y-84259922D02*
X147395000Y-84777078D01*
X160913578Y-98096000D02*
X160396422Y-98096000D01*
X160913578Y-99516000D02*
X160396422Y-99516000D01*
X138298422Y-104977000D02*
X138815578Y-104977000D01*
X138298422Y-103557000D02*
X138815578Y-103557000D01*
X149554000Y-108970578D02*
X149554000Y-108453422D01*
X148134000Y-108970578D02*
X148134000Y-108453422D01*
X153491000Y-108970578D02*
X153491000Y-108453422D01*
X152071000Y-108970578D02*
X152071000Y-108453422D01*
X136092000Y-86872578D02*
X136092000Y-86355422D01*
X134672000Y-86872578D02*
X134672000Y-86355422D01*
X172470578Y-94159000D02*
X171953422Y-94159000D01*
X172470578Y-95579000D02*
X171953422Y-95579000D01*
X160396422Y-101548000D02*
X160913578Y-101548000D01*
X160396422Y-100128000D02*
X160913578Y-100128000D01*
X138298422Y-98881000D02*
X138815578Y-98881000D01*
X138298422Y-97461000D02*
X138815578Y-97461000D01*
X172470578Y-87936000D02*
X171953422Y-87936000D01*
X172470578Y-89356000D02*
X171953422Y-89356000D01*
D13*
X172632000Y-96701000D02*
X167982000Y-96701000D01*
X173707000Y-103526000D02*
X167982000Y-103526000D01*
X172632000Y-96701000D02*
X172632000Y-96726000D01*
X167982000Y-96701000D02*
X167982000Y-96726000D01*
X167982000Y-103526000D02*
X167982000Y-103426000D01*
D11*
X153660500Y-103172500D02*
X154950500Y-103172500D01*
X153660500Y-103622500D02*
X153660500Y-103172500D01*
X153210500Y-103622500D02*
X153660500Y-103622500D01*
X146440500Y-103622500D02*
X146440500Y-103172500D01*
X146890500Y-103622500D02*
X146440500Y-103622500D01*
X153660500Y-96402500D02*
X153660500Y-96852500D01*
X153210500Y-96402500D02*
X153660500Y-96402500D01*
X146440500Y-96402500D02*
X146440500Y-96852500D01*
X146890500Y-96402500D02*
X146440500Y-96402500D01*
X132735000Y-90070000D02*
X132735000Y-92810000D01*
X124995000Y-90070000D02*
X124995000Y-92810000D01*
X124995000Y-92810000D02*
X132735000Y-92810000D01*
X124995000Y-90070000D02*
X132735000Y-90070000D01*
X134060000Y-86872578D02*
X134060000Y-86355422D01*
X132640000Y-86872578D02*
X132640000Y-86355422D01*
X119455000Y-97667578D02*
X119455000Y-97150422D01*
X118035000Y-97667578D02*
X118035000Y-97150422D01*
X120264422Y-104469000D02*
X120781578Y-104469000D01*
X120264422Y-103049000D02*
X120781578Y-103049000D01*
X131694422Y-102183000D02*
X132211578Y-102183000D01*
X131694422Y-100763000D02*
X132211578Y-100763000D01*
X122645000Y-99925000D02*
X123845000Y-99925000D01*
X122645000Y-98725000D02*
X122645000Y-99925000D01*
X134665000Y-93335000D02*
X134665000Y-99675000D01*
X122895000Y-99675000D02*
X134665000Y-99675000D01*
X122895000Y-93335000D02*
X122895000Y-99675000D01*
X122895000Y-93335000D02*
X134665000Y-93335000D01*
X114320666Y-92707666D02*
X114320666Y-93207666D01*
X114287333Y-93307666D01*
X114220666Y-93374333D01*
X114120666Y-93407666D01*
X114054000Y-93407666D01*
X115020666Y-93407666D02*
X114620666Y-93407666D01*
X114820666Y-93407666D02*
X114820666Y-92707666D01*
X114754000Y-92807666D01*
X114687333Y-92874333D01*
X114620666Y-92907666D01*
X170800000Y-105500000D02*
X170766666Y-105533333D01*
X170666666Y-105566666D01*
X170600000Y-105566666D01*
X170500000Y-105533333D01*
X170433333Y-105466666D01*
X170400000Y-105400000D01*
X170366666Y-105266666D01*
X170366666Y-105166666D01*
X170400000Y-105033333D01*
X170433333Y-104966666D01*
X170500000Y-104900000D01*
X170600000Y-104866666D01*
X170666666Y-104866666D01*
X170766666Y-104900000D01*
X170800000Y-104933333D01*
X171066666Y-104933333D02*
X171100000Y-104900000D01*
X171166666Y-104866666D01*
X171333333Y-104866666D01*
X171400000Y-104900000D01*
X171433333Y-104933333D01*
X171466666Y-105000000D01*
X171466666Y-105066666D01*
X171433333Y-105166666D01*
X171033333Y-105566666D01*
X171466666Y-105566666D01*
X171700000Y-104866666D02*
X172133333Y-104866666D01*
X171900000Y-105133333D01*
X172000000Y-105133333D01*
X172066666Y-105166666D01*
X172100000Y-105200000D01*
X172133333Y-105266666D01*
X172133333Y-105433333D01*
X172100000Y-105500000D01*
X172066666Y-105533333D01*
X172000000Y-105566666D01*
X171800000Y-105566666D01*
X171733333Y-105533333D01*
X171700000Y-105500000D01*
X140980333Y-94357000D02*
X140947000Y-94390333D01*
X140847000Y-94423666D01*
X140780333Y-94423666D01*
X140680333Y-94390333D01*
X140613666Y-94323666D01*
X140580333Y-94257000D01*
X140547000Y-94123666D01*
X140547000Y-94023666D01*
X140580333Y-93890333D01*
X140613666Y-93823666D01*
X140680333Y-93757000D01*
X140780333Y-93723666D01*
X140847000Y-93723666D01*
X140947000Y-93757000D01*
X140980333Y-93790333D01*
X141313666Y-94423666D02*
X141447000Y-94423666D01*
X141513666Y-94390333D01*
X141547000Y-94357000D01*
X141613666Y-94257000D01*
X141647000Y-94123666D01*
X141647000Y-93857000D01*
X141613666Y-93790333D01*
X141580333Y-93757000D01*
X141513666Y-93723666D01*
X141380333Y-93723666D01*
X141313666Y-93757000D01*
X141280333Y-93790333D01*
X141247000Y-93857000D01*
X141247000Y-94023666D01*
X141280333Y-94090333D01*
X141313666Y-94123666D01*
X141380333Y-94157000D01*
X141513666Y-94157000D01*
X141580333Y-94123666D01*
X141613666Y-94090333D01*
X141647000Y-94023666D01*
X137551333Y-90420000D02*
X137518000Y-90453333D01*
X137418000Y-90486666D01*
X137351333Y-90486666D01*
X137251333Y-90453333D01*
X137184666Y-90386666D01*
X137151333Y-90320000D01*
X137118000Y-90186666D01*
X137118000Y-90086666D01*
X137151333Y-89953333D01*
X137184666Y-89886666D01*
X137251333Y-89820000D01*
X137351333Y-89786666D01*
X137418000Y-89786666D01*
X137518000Y-89820000D01*
X137551333Y-89853333D01*
X138184666Y-89786666D02*
X137851333Y-89786666D01*
X137818000Y-90120000D01*
X137851333Y-90086666D01*
X137918000Y-90053333D01*
X138084666Y-90053333D01*
X138151333Y-90086666D01*
X138184666Y-90120000D01*
X138218000Y-90186666D01*
X138218000Y-90353333D01*
X138184666Y-90420000D01*
X138151333Y-90453333D01*
X138084666Y-90486666D01*
X137918000Y-90486666D01*
X137851333Y-90453333D01*
X137818000Y-90420000D01*
X160321666Y-107742833D02*
X160321666Y-108076166D01*
X160088333Y-107376166D02*
X160321666Y-107742833D01*
X160555000Y-107376166D01*
X161155000Y-108076166D02*
X160755000Y-108076166D01*
X160955000Y-108076166D02*
X160955000Y-107376166D01*
X160888333Y-107476166D01*
X160821666Y-107542833D01*
X160755000Y-107576166D01*
X121408000Y-94620500D02*
X121441333Y-94653833D01*
X121474666Y-94753833D01*
X121474666Y-94820500D01*
X121441333Y-94920500D01*
X121374666Y-94987166D01*
X121308000Y-95020500D01*
X121174666Y-95053833D01*
X121074666Y-95053833D01*
X120941333Y-95020500D01*
X120874666Y-94987166D01*
X120808000Y-94920500D01*
X120774666Y-94820500D01*
X120774666Y-94753833D01*
X120808000Y-94653833D01*
X120841333Y-94620500D01*
X121474666Y-93953833D02*
X121474666Y-94353833D01*
X121474666Y-94153833D02*
X120774666Y-94153833D01*
X120874666Y-94220500D01*
X120941333Y-94287166D01*
X120974666Y-94353833D01*
X121474666Y-93620500D02*
X121474666Y-93487166D01*
X121441333Y-93420500D01*
X121408000Y-93387166D01*
X121308000Y-93320500D01*
X121174666Y-93287166D01*
X120908000Y-93287166D01*
X120841333Y-93320500D01*
X120808000Y-93353833D01*
X120774666Y-93420500D01*
X120774666Y-93553833D01*
X120808000Y-93620500D01*
X120841333Y-93653833D01*
X120908000Y-93687166D01*
X121074666Y-93687166D01*
X121141333Y-93653833D01*
X121174666Y-93620500D01*
X121208000Y-93553833D01*
X121208000Y-93420500D01*
X121174666Y-93353833D01*
X121141333Y-93320500D01*
X121074666Y-93287166D01*
X125153000Y-102294500D02*
X125119666Y-102327833D01*
X125019666Y-102361166D01*
X124953000Y-102361166D01*
X124853000Y-102327833D01*
X124786333Y-102261166D01*
X124753000Y-102194500D01*
X124719666Y-102061166D01*
X124719666Y-101961166D01*
X124753000Y-101827833D01*
X124786333Y-101761166D01*
X124853000Y-101694500D01*
X124953000Y-101661166D01*
X125019666Y-101661166D01*
X125119666Y-101694500D01*
X125153000Y-101727833D01*
X125819666Y-102361166D02*
X125419666Y-102361166D01*
X125619666Y-102361166D02*
X125619666Y-101661166D01*
X125553000Y-101761166D01*
X125486333Y-101827833D01*
X125419666Y-101861166D01*
X126453000Y-101661166D02*
X126119666Y-101661166D01*
X126086333Y-101994500D01*
X126119666Y-101961166D01*
X126186333Y-101927833D01*
X126353000Y-101927833D01*
X126419666Y-101961166D01*
X126453000Y-101994500D01*
X126486333Y-102061166D01*
X126486333Y-102227833D01*
X126453000Y-102294500D01*
X126419666Y-102327833D01*
X126353000Y-102361166D01*
X126186333Y-102361166D01*
X126119666Y-102327833D01*
X126086333Y-102294500D01*
X134424000Y-104009000D02*
X134390666Y-104042333D01*
X134290666Y-104075666D01*
X134224000Y-104075666D01*
X134124000Y-104042333D01*
X134057333Y-103975666D01*
X134024000Y-103909000D01*
X133990666Y-103775666D01*
X133990666Y-103675666D01*
X134024000Y-103542333D01*
X134057333Y-103475666D01*
X134124000Y-103409000D01*
X134224000Y-103375666D01*
X134290666Y-103375666D01*
X134390666Y-103409000D01*
X134424000Y-103442333D01*
X134690666Y-103442333D02*
X134724000Y-103409000D01*
X134790666Y-103375666D01*
X134957333Y-103375666D01*
X135024000Y-103409000D01*
X135057333Y-103442333D01*
X135090666Y-103509000D01*
X135090666Y-103575666D01*
X135057333Y-103675666D01*
X134657333Y-104075666D01*
X135090666Y-104075666D01*
X135757333Y-104075666D02*
X135357333Y-104075666D01*
X135557333Y-104075666D02*
X135557333Y-103375666D01*
X135490666Y-103475666D01*
X135424000Y-103542333D01*
X135357333Y-103575666D01*
X151129166Y-111956000D02*
X150795833Y-112189333D01*
X151129166Y-112356000D02*
X150429166Y-112356000D01*
X150429166Y-112089333D01*
X150462500Y-112022666D01*
X150495833Y-111989333D01*
X150562500Y-111956000D01*
X150662500Y-111956000D01*
X150729166Y-111989333D01*
X150762500Y-112022666D01*
X150795833Y-112089333D01*
X150795833Y-112356000D01*
X150495833Y-111689333D02*
X150462500Y-111656000D01*
X150429166Y-111589333D01*
X150429166Y-111422666D01*
X150462500Y-111356000D01*
X150495833Y-111322666D01*
X150562500Y-111289333D01*
X150629166Y-111289333D01*
X150729166Y-111322666D01*
X151129166Y-111722666D01*
X151129166Y-111289333D01*
X151129166Y-110622666D02*
X151129166Y-111022666D01*
X151129166Y-110822666D02*
X150429166Y-110822666D01*
X150529166Y-110889333D01*
X150595833Y-110956000D01*
X150629166Y-111022666D01*
X163678000Y-83695333D02*
X163611333Y-83662000D01*
X163544667Y-83595333D01*
X163444667Y-83495333D01*
X163378000Y-83462000D01*
X163311333Y-83462000D01*
X163344667Y-83628666D02*
X163278000Y-83595333D01*
X163211333Y-83528666D01*
X163178000Y-83395333D01*
X163178000Y-83162000D01*
X163211333Y-83028666D01*
X163278000Y-82962000D01*
X163344667Y-82928666D01*
X163478000Y-82928666D01*
X163544667Y-82962000D01*
X163611333Y-83028666D01*
X163644667Y-83162000D01*
X163644667Y-83395333D01*
X163611333Y-83528666D01*
X163544667Y-83595333D01*
X163478000Y-83628666D01*
X163344667Y-83628666D01*
X163878000Y-82928666D02*
X164311333Y-82928666D01*
X164078000Y-83195333D01*
X164178000Y-83195333D01*
X164244667Y-83228666D01*
X164278000Y-83262000D01*
X164311333Y-83328666D01*
X164311333Y-83495333D01*
X164278000Y-83562000D01*
X164244667Y-83595333D01*
X164178000Y-83628666D01*
X163978000Y-83628666D01*
X163911333Y-83595333D01*
X163878000Y-83562000D01*
X163678000Y-88013333D02*
X163611333Y-87980000D01*
X163544667Y-87913333D01*
X163444667Y-87813333D01*
X163378000Y-87780000D01*
X163311333Y-87780000D01*
X163344667Y-87946666D02*
X163278000Y-87913333D01*
X163211333Y-87846666D01*
X163178000Y-87713333D01*
X163178000Y-87480000D01*
X163211333Y-87346666D01*
X163278000Y-87280000D01*
X163344667Y-87246666D01*
X163478000Y-87246666D01*
X163544667Y-87280000D01*
X163611333Y-87346666D01*
X163644667Y-87480000D01*
X163644667Y-87713333D01*
X163611333Y-87846666D01*
X163544667Y-87913333D01*
X163478000Y-87946666D01*
X163344667Y-87946666D01*
X163911333Y-87313333D02*
X163944667Y-87280000D01*
X164011333Y-87246666D01*
X164178000Y-87246666D01*
X164244667Y-87280000D01*
X164278000Y-87313333D01*
X164311333Y-87380000D01*
X164311333Y-87446666D01*
X164278000Y-87546666D01*
X163878000Y-87946666D01*
X164311333Y-87946666D01*
X185063333Y-107046666D02*
X185530000Y-107746666D01*
X185530000Y-107046666D02*
X185063333Y-107746666D01*
X186163333Y-107746666D02*
X185763333Y-107746666D01*
X185963333Y-107746666D02*
X185963333Y-107046666D01*
X185896666Y-107146666D01*
X185830000Y-107213333D01*
X185763333Y-107246666D01*
X137901666Y-115694666D02*
X137901666Y-116261333D01*
X137935000Y-116328000D01*
X137968333Y-116361333D01*
X138035000Y-116394666D01*
X138168333Y-116394666D01*
X138235000Y-116361333D01*
X138268333Y-116328000D01*
X138301666Y-116261333D01*
X138301666Y-115694666D01*
X138568333Y-115694666D02*
X139035000Y-115694666D01*
X138735000Y-116394666D01*
X140817666Y-89151666D02*
X140817666Y-89718333D01*
X140851000Y-89785000D01*
X140884333Y-89818333D01*
X140951000Y-89851666D01*
X141084333Y-89851666D01*
X141151000Y-89818333D01*
X141184333Y-89785000D01*
X141217666Y-89718333D01*
X141217666Y-89151666D01*
X141851000Y-89151666D02*
X141717666Y-89151666D01*
X141651000Y-89185000D01*
X141617666Y-89218333D01*
X141551000Y-89318333D01*
X141517666Y-89451666D01*
X141517666Y-89718333D01*
X141551000Y-89785000D01*
X141584333Y-89818333D01*
X141651000Y-89851666D01*
X141784333Y-89851666D01*
X141851000Y-89818333D01*
X141884333Y-89785000D01*
X141917666Y-89718333D01*
X141917666Y-89551666D01*
X141884333Y-89485000D01*
X141851000Y-89451666D01*
X141784333Y-89418333D01*
X141651000Y-89418333D01*
X141584333Y-89451666D01*
X141551000Y-89485000D01*
X141517666Y-89551666D01*
X116179666Y-115694666D02*
X116179666Y-116261333D01*
X116213000Y-116328000D01*
X116246333Y-116361333D01*
X116313000Y-116394666D01*
X116446333Y-116394666D01*
X116513000Y-116361333D01*
X116546333Y-116328000D01*
X116579666Y-116261333D01*
X116579666Y-115694666D01*
X117246333Y-115694666D02*
X116913000Y-115694666D01*
X116879666Y-116028000D01*
X116913000Y-115994666D01*
X116979666Y-115961333D01*
X117146333Y-115961333D01*
X117213000Y-115994666D01*
X117246333Y-116028000D01*
X117279666Y-116094666D01*
X117279666Y-116261333D01*
X117246333Y-116328000D01*
X117213000Y-116361333D01*
X117146333Y-116394666D01*
X116979666Y-116394666D01*
X116913000Y-116361333D01*
X116879666Y-116328000D01*
X140690666Y-83690666D02*
X140690666Y-84257333D01*
X140724000Y-84324000D01*
X140757333Y-84357333D01*
X140824000Y-84390666D01*
X140957333Y-84390666D01*
X141024000Y-84357333D01*
X141057333Y-84324000D01*
X141090666Y-84257333D01*
X141090666Y-83690666D01*
X141357333Y-83690666D02*
X141790666Y-83690666D01*
X141557333Y-83957333D01*
X141657333Y-83957333D01*
X141724000Y-83990666D01*
X141757333Y-84024000D01*
X141790666Y-84090666D01*
X141790666Y-84257333D01*
X141757333Y-84324000D01*
X141724000Y-84357333D01*
X141657333Y-84390666D01*
X141457333Y-84390666D01*
X141390666Y-84357333D01*
X141357333Y-84324000D01*
X128244666Y-110360666D02*
X128244666Y-110927333D01*
X128278000Y-110994000D01*
X128311333Y-111027333D01*
X128378000Y-111060666D01*
X128511333Y-111060666D01*
X128578000Y-111027333D01*
X128611333Y-110994000D01*
X128644666Y-110927333D01*
X128644666Y-110360666D01*
X129344666Y-111060666D02*
X128944666Y-111060666D01*
X129144666Y-111060666D02*
X129144666Y-110360666D01*
X129078000Y-110460666D01*
X129011333Y-110527333D01*
X128944666Y-110560666D01*
X155276666Y-113033333D02*
X155376666Y-113066666D01*
X155543333Y-113066666D01*
X155610000Y-113033333D01*
X155643333Y-113000000D01*
X155676666Y-112933333D01*
X155676666Y-112866666D01*
X155643333Y-112800000D01*
X155610000Y-112766666D01*
X155543333Y-112733333D01*
X155410000Y-112700000D01*
X155343333Y-112666666D01*
X155310000Y-112633333D01*
X155276666Y-112566666D01*
X155276666Y-112500000D01*
X155310000Y-112433333D01*
X155343333Y-112400000D01*
X155410000Y-112366666D01*
X155576666Y-112366666D01*
X155676666Y-112400000D01*
X155910000Y-112366666D02*
X156076666Y-113066666D01*
X156210000Y-112566666D01*
X156343333Y-113066666D01*
X156510000Y-112366666D01*
X157143333Y-113066666D02*
X156743333Y-113066666D01*
X156943333Y-113066666D02*
X156943333Y-112366666D01*
X156876666Y-112466666D01*
X156810000Y-112533333D01*
X156743333Y-112566666D01*
X177570666Y-95439666D02*
X177337333Y-95106333D01*
X177170666Y-95439666D02*
X177170666Y-94739666D01*
X177437333Y-94739666D01*
X177504000Y-94773000D01*
X177537333Y-94806333D01*
X177570666Y-94873000D01*
X177570666Y-94973000D01*
X177537333Y-95039666D01*
X177504000Y-95073000D01*
X177437333Y-95106333D01*
X177170666Y-95106333D01*
X177870666Y-95439666D02*
X177870666Y-94739666D01*
X178270666Y-95439666D01*
X178270666Y-94739666D01*
X178570666Y-94806333D02*
X178604000Y-94773000D01*
X178670666Y-94739666D01*
X178837333Y-94739666D01*
X178904000Y-94773000D01*
X178937333Y-94806333D01*
X178970666Y-94873000D01*
X178970666Y-94939666D01*
X178937333Y-95039666D01*
X178537333Y-95439666D01*
X178970666Y-95439666D01*
X177570666Y-105351666D02*
X177337333Y-105018333D01*
X177170666Y-105351666D02*
X177170666Y-104651666D01*
X177437333Y-104651666D01*
X177504000Y-104685000D01*
X177537333Y-104718333D01*
X177570666Y-104785000D01*
X177570666Y-104885000D01*
X177537333Y-104951666D01*
X177504000Y-104985000D01*
X177437333Y-105018333D01*
X177170666Y-105018333D01*
X177870666Y-105351666D02*
X177870666Y-104651666D01*
X178270666Y-105351666D01*
X178270666Y-104651666D01*
X178970666Y-105351666D02*
X178570666Y-105351666D01*
X178770666Y-105351666D02*
X178770666Y-104651666D01*
X178704000Y-104751666D01*
X178637333Y-104818333D01*
X178570666Y-104851666D01*
X120073000Y-116648666D02*
X119839666Y-116315333D01*
X119673000Y-116648666D02*
X119673000Y-115948666D01*
X119939666Y-115948666D01*
X120006333Y-115982000D01*
X120039666Y-116015333D01*
X120073000Y-116082000D01*
X120073000Y-116182000D01*
X120039666Y-116248666D01*
X120006333Y-116282000D01*
X119939666Y-116315333D01*
X119673000Y-116315333D01*
X120339666Y-116015333D02*
X120373000Y-115982000D01*
X120439666Y-115948666D01*
X120606333Y-115948666D01*
X120673000Y-115982000D01*
X120706333Y-116015333D01*
X120739666Y-116082000D01*
X120739666Y-116148666D01*
X120706333Y-116248666D01*
X120306333Y-116648666D01*
X120739666Y-116648666D01*
X121173000Y-115948666D02*
X121239666Y-115948666D01*
X121306333Y-115982000D01*
X121339666Y-116015333D01*
X121373000Y-116082000D01*
X121406333Y-116215333D01*
X121406333Y-116382000D01*
X121373000Y-116515333D01*
X121339666Y-116582000D01*
X121306333Y-116615333D01*
X121239666Y-116648666D01*
X121173000Y-116648666D01*
X121106333Y-116615333D01*
X121073000Y-116582000D01*
X121039666Y-116515333D01*
X121006333Y-116382000D01*
X121006333Y-116215333D01*
X121039666Y-116082000D01*
X121073000Y-116015333D01*
X121106333Y-115982000D01*
X121173000Y-115948666D01*
X120073000Y-117791666D02*
X119839666Y-117458333D01*
X119673000Y-117791666D02*
X119673000Y-117091666D01*
X119939666Y-117091666D01*
X120006333Y-117125000D01*
X120039666Y-117158333D01*
X120073000Y-117225000D01*
X120073000Y-117325000D01*
X120039666Y-117391666D01*
X120006333Y-117425000D01*
X119939666Y-117458333D01*
X119673000Y-117458333D01*
X120739666Y-117791666D02*
X120339666Y-117791666D01*
X120539666Y-117791666D02*
X120539666Y-117091666D01*
X120473000Y-117191666D01*
X120406333Y-117258333D01*
X120339666Y-117291666D01*
X121073000Y-117791666D02*
X121206333Y-117791666D01*
X121273000Y-117758333D01*
X121306333Y-117725000D01*
X121373000Y-117625000D01*
X121406333Y-117491666D01*
X121406333Y-117225000D01*
X121373000Y-117158333D01*
X121339666Y-117125000D01*
X121273000Y-117091666D01*
X121139666Y-117091666D01*
X121073000Y-117125000D01*
X121039666Y-117158333D01*
X121006333Y-117225000D01*
X121006333Y-117391666D01*
X121039666Y-117458333D01*
X121073000Y-117491666D01*
X121139666Y-117525000D01*
X121273000Y-117525000D01*
X121339666Y-117491666D01*
X121373000Y-117458333D01*
X121406333Y-117391666D01*
X151700666Y-92271000D02*
X151367333Y-92504333D01*
X151700666Y-92671000D02*
X151000666Y-92671000D01*
X151000666Y-92404333D01*
X151034000Y-92337666D01*
X151067333Y-92304333D01*
X151134000Y-92271000D01*
X151234000Y-92271000D01*
X151300666Y-92304333D01*
X151334000Y-92337666D01*
X151367333Y-92404333D01*
X151367333Y-92671000D01*
X151700666Y-91604333D02*
X151700666Y-92004333D01*
X151700666Y-91804333D02*
X151000666Y-91804333D01*
X151100666Y-91871000D01*
X151167333Y-91937666D01*
X151200666Y-92004333D01*
X151300666Y-91204333D02*
X151267333Y-91271000D01*
X151234000Y-91304333D01*
X151167333Y-91337666D01*
X151134000Y-91337666D01*
X151067333Y-91304333D01*
X151034000Y-91271000D01*
X151000666Y-91204333D01*
X151000666Y-91071000D01*
X151034000Y-91004333D01*
X151067333Y-90971000D01*
X151134000Y-90937666D01*
X151167333Y-90937666D01*
X151234000Y-90971000D01*
X151267333Y-91004333D01*
X151300666Y-91071000D01*
X151300666Y-91204333D01*
X151334000Y-91271000D01*
X151367333Y-91304333D01*
X151434000Y-91337666D01*
X151567333Y-91337666D01*
X151634000Y-91304333D01*
X151667333Y-91271000D01*
X151700666Y-91204333D01*
X151700666Y-91071000D01*
X151667333Y-91004333D01*
X151634000Y-90971000D01*
X151567333Y-90937666D01*
X151434000Y-90937666D01*
X151367333Y-90971000D01*
X151334000Y-91004333D01*
X151300666Y-91071000D01*
X154240666Y-92271000D02*
X153907333Y-92504333D01*
X154240666Y-92671000D02*
X153540666Y-92671000D01*
X153540666Y-92404333D01*
X153574000Y-92337666D01*
X153607333Y-92304333D01*
X153674000Y-92271000D01*
X153774000Y-92271000D01*
X153840666Y-92304333D01*
X153874000Y-92337666D01*
X153907333Y-92404333D01*
X153907333Y-92671000D01*
X154240666Y-91604333D02*
X154240666Y-92004333D01*
X154240666Y-91804333D02*
X153540666Y-91804333D01*
X153640666Y-91871000D01*
X153707333Y-91937666D01*
X153740666Y-92004333D01*
X153540666Y-91371000D02*
X153540666Y-90904333D01*
X154240666Y-91204333D01*
X156780666Y-92271000D02*
X156447333Y-92504333D01*
X156780666Y-92671000D02*
X156080666Y-92671000D01*
X156080666Y-92404333D01*
X156114000Y-92337666D01*
X156147333Y-92304333D01*
X156214000Y-92271000D01*
X156314000Y-92271000D01*
X156380666Y-92304333D01*
X156414000Y-92337666D01*
X156447333Y-92404333D01*
X156447333Y-92671000D01*
X156780666Y-91604333D02*
X156780666Y-92004333D01*
X156780666Y-91804333D02*
X156080666Y-91804333D01*
X156180666Y-91871000D01*
X156247333Y-91937666D01*
X156280666Y-92004333D01*
X156080666Y-91004333D02*
X156080666Y-91137666D01*
X156114000Y-91204333D01*
X156147333Y-91237666D01*
X156247333Y-91304333D01*
X156380666Y-91337666D01*
X156647333Y-91337666D01*
X156714000Y-91304333D01*
X156747333Y-91271000D01*
X156780666Y-91204333D01*
X156780666Y-91071000D01*
X156747333Y-91004333D01*
X156714000Y-90971000D01*
X156647333Y-90937666D01*
X156480666Y-90937666D01*
X156414000Y-90971000D01*
X156380666Y-91004333D01*
X156347333Y-91071000D01*
X156347333Y-91204333D01*
X156380666Y-91271000D01*
X156414000Y-91304333D01*
X156480666Y-91337666D01*
X149160666Y-92271000D02*
X148827333Y-92504333D01*
X149160666Y-92671000D02*
X148460666Y-92671000D01*
X148460666Y-92404333D01*
X148494000Y-92337666D01*
X148527333Y-92304333D01*
X148594000Y-92271000D01*
X148694000Y-92271000D01*
X148760666Y-92304333D01*
X148794000Y-92337666D01*
X148827333Y-92404333D01*
X148827333Y-92671000D01*
X149160666Y-91604333D02*
X149160666Y-92004333D01*
X149160666Y-91804333D02*
X148460666Y-91804333D01*
X148560666Y-91871000D01*
X148627333Y-91937666D01*
X148660666Y-92004333D01*
X148460666Y-90971000D02*
X148460666Y-91304333D01*
X148794000Y-91337666D01*
X148760666Y-91304333D01*
X148727333Y-91237666D01*
X148727333Y-91071000D01*
X148760666Y-91004333D01*
X148794000Y-90971000D01*
X148860666Y-90937666D01*
X149027333Y-90937666D01*
X149094000Y-90971000D01*
X149127333Y-91004333D01*
X149160666Y-91071000D01*
X149160666Y-91237666D01*
X149127333Y-91304333D01*
X149094000Y-91337666D01*
X163611333Y-91121666D02*
X163377999Y-90788333D01*
X163211333Y-91121666D02*
X163211333Y-90421666D01*
X163477999Y-90421666D01*
X163544666Y-90455000D01*
X163577999Y-90488333D01*
X163611333Y-90555000D01*
X163611333Y-90655000D01*
X163577999Y-90721666D01*
X163544666Y-90755000D01*
X163477999Y-90788333D01*
X163211333Y-90788333D01*
X164277999Y-91121666D02*
X163877999Y-91121666D01*
X164077999Y-91121666D02*
X164077999Y-90421666D01*
X164011333Y-90521666D01*
X163944666Y-90588333D01*
X163877999Y-90621666D01*
X164877999Y-90655000D02*
X164877999Y-91121666D01*
X164711333Y-90388333D02*
X164544666Y-90888333D01*
X164977999Y-90888333D01*
X137984666Y-78809000D02*
X137651333Y-79042333D01*
X137984666Y-79209000D02*
X137284666Y-79209000D01*
X137284666Y-78942333D01*
X137318000Y-78875666D01*
X137351333Y-78842333D01*
X137418000Y-78809000D01*
X137518000Y-78809000D01*
X137584666Y-78842333D01*
X137618000Y-78875666D01*
X137651333Y-78942333D01*
X137651333Y-79209000D01*
X137984666Y-78142333D02*
X137984666Y-78542333D01*
X137984666Y-78342333D02*
X137284666Y-78342333D01*
X137384666Y-78409000D01*
X137451333Y-78475666D01*
X137484666Y-78542333D01*
X137284666Y-77909000D02*
X137284666Y-77475666D01*
X137551333Y-77709000D01*
X137551333Y-77609000D01*
X137584666Y-77542333D01*
X137618000Y-77509000D01*
X137684666Y-77475666D01*
X137851333Y-77475666D01*
X137918000Y-77509000D01*
X137951333Y-77542333D01*
X137984666Y-77609000D01*
X137984666Y-77809000D01*
X137951333Y-77875666D01*
X137918000Y-77909000D01*
X133539666Y-79825000D02*
X133206333Y-80058333D01*
X133539666Y-80225000D02*
X132839666Y-80225000D01*
X132839666Y-79958333D01*
X132873000Y-79891666D01*
X132906333Y-79858333D01*
X132973000Y-79825000D01*
X133073000Y-79825000D01*
X133139666Y-79858333D01*
X133173000Y-79891666D01*
X133206333Y-79958333D01*
X133206333Y-80225000D01*
X133539666Y-79158333D02*
X133539666Y-79558333D01*
X133539666Y-79358333D02*
X132839666Y-79358333D01*
X132939666Y-79425000D01*
X133006333Y-79491666D01*
X133039666Y-79558333D01*
X132906333Y-78891666D02*
X132873000Y-78858333D01*
X132839666Y-78791666D01*
X132839666Y-78625000D01*
X132873000Y-78558333D01*
X132906333Y-78525000D01*
X132973000Y-78491666D01*
X133039666Y-78491666D01*
X133139666Y-78525000D01*
X133539666Y-78925000D01*
X133539666Y-78491666D01*
X135698666Y-79825000D02*
X135365333Y-80058333D01*
X135698666Y-80225000D02*
X134998666Y-80225000D01*
X134998666Y-79958333D01*
X135032000Y-79891666D01*
X135065333Y-79858333D01*
X135132000Y-79825000D01*
X135232000Y-79825000D01*
X135298666Y-79858333D01*
X135332000Y-79891666D01*
X135365333Y-79958333D01*
X135365333Y-80225000D01*
X135698666Y-79158333D02*
X135698666Y-79558333D01*
X135698666Y-79358333D02*
X134998666Y-79358333D01*
X135098666Y-79425000D01*
X135165333Y-79491666D01*
X135198666Y-79558333D01*
X135698666Y-78491666D02*
X135698666Y-78891666D01*
X135698666Y-78691666D02*
X134998666Y-78691666D01*
X135098666Y-78758333D01*
X135165333Y-78825000D01*
X135198666Y-78891666D01*
X140980333Y-100519666D02*
X140746999Y-100186333D01*
X140580333Y-100519666D02*
X140580333Y-99819666D01*
X140846999Y-99819666D01*
X140913666Y-99853000D01*
X140946999Y-99886333D01*
X140980333Y-99953000D01*
X140980333Y-100053000D01*
X140946999Y-100119666D01*
X140913666Y-100153000D01*
X140846999Y-100186333D01*
X140580333Y-100186333D01*
X141646999Y-100519666D02*
X141246999Y-100519666D01*
X141446999Y-100519666D02*
X141446999Y-99819666D01*
X141380333Y-99919666D01*
X141313666Y-99986333D01*
X141246999Y-100019666D01*
X142080333Y-99819666D02*
X142146999Y-99819666D01*
X142213666Y-99853000D01*
X142246999Y-99886333D01*
X142280333Y-99953000D01*
X142313666Y-100086333D01*
X142313666Y-100253000D01*
X142280333Y-100386333D01*
X142246999Y-100453000D01*
X142213666Y-100486333D01*
X142146999Y-100519666D01*
X142080333Y-100519666D01*
X142013666Y-100486333D01*
X141980333Y-100453000D01*
X141946999Y-100386333D01*
X141913666Y-100253000D01*
X141913666Y-100086333D01*
X141946999Y-99953000D01*
X141980333Y-99886333D01*
X142013666Y-99853000D01*
X142080333Y-99819666D01*
X140980333Y-102551666D02*
X140747000Y-102218333D01*
X140580333Y-102551666D02*
X140580333Y-101851666D01*
X140847000Y-101851666D01*
X140913666Y-101885000D01*
X140947000Y-101918333D01*
X140980333Y-101985000D01*
X140980333Y-102085000D01*
X140947000Y-102151666D01*
X140913666Y-102185000D01*
X140847000Y-102218333D01*
X140580333Y-102218333D01*
X141313666Y-102551666D02*
X141447000Y-102551666D01*
X141513666Y-102518333D01*
X141547000Y-102485000D01*
X141613666Y-102385000D01*
X141647000Y-102251666D01*
X141647000Y-101985000D01*
X141613666Y-101918333D01*
X141580333Y-101885000D01*
X141513666Y-101851666D01*
X141380333Y-101851666D01*
X141313666Y-101885000D01*
X141280333Y-101918333D01*
X141247000Y-101985000D01*
X141247000Y-102151666D01*
X141280333Y-102218333D01*
X141313666Y-102251666D01*
X141380333Y-102285000D01*
X141513666Y-102285000D01*
X141580333Y-102251666D01*
X141613666Y-102218333D01*
X141647000Y-102151666D01*
X145679333Y-114870666D02*
X145446000Y-114537333D01*
X145279333Y-114870666D02*
X145279333Y-114170666D01*
X145546000Y-114170666D01*
X145612666Y-114204000D01*
X145646000Y-114237333D01*
X145679333Y-114304000D01*
X145679333Y-114404000D01*
X145646000Y-114470666D01*
X145612666Y-114504000D01*
X145546000Y-114537333D01*
X145279333Y-114537333D01*
X146079333Y-114470666D02*
X146012666Y-114437333D01*
X145979333Y-114404000D01*
X145946000Y-114337333D01*
X145946000Y-114304000D01*
X145979333Y-114237333D01*
X146012666Y-114204000D01*
X146079333Y-114170666D01*
X146212666Y-114170666D01*
X146279333Y-114204000D01*
X146312666Y-114237333D01*
X146346000Y-114304000D01*
X146346000Y-114337333D01*
X146312666Y-114404000D01*
X146279333Y-114437333D01*
X146212666Y-114470666D01*
X146079333Y-114470666D01*
X146012666Y-114504000D01*
X145979333Y-114537333D01*
X145946000Y-114604000D01*
X145946000Y-114737333D01*
X145979333Y-114804000D01*
X146012666Y-114837333D01*
X146079333Y-114870666D01*
X146212666Y-114870666D01*
X146279333Y-114837333D01*
X146312666Y-114804000D01*
X146346000Y-114737333D01*
X146346000Y-114604000D01*
X146312666Y-114537333D01*
X146279333Y-114504000D01*
X146212666Y-114470666D01*
X145679333Y-112711666D02*
X145446000Y-112378333D01*
X145279333Y-112711666D02*
X145279333Y-112011666D01*
X145546000Y-112011666D01*
X145612666Y-112045000D01*
X145646000Y-112078333D01*
X145679333Y-112145000D01*
X145679333Y-112245000D01*
X145646000Y-112311666D01*
X145612666Y-112345000D01*
X145546000Y-112378333D01*
X145279333Y-112378333D01*
X145912666Y-112011666D02*
X146379333Y-112011666D01*
X146079333Y-112711666D01*
X145679333Y-117029666D02*
X145446000Y-116696333D01*
X145279333Y-117029666D02*
X145279333Y-116329666D01*
X145546000Y-116329666D01*
X145612666Y-116363000D01*
X145646000Y-116396333D01*
X145679333Y-116463000D01*
X145679333Y-116563000D01*
X145646000Y-116629666D01*
X145612666Y-116663000D01*
X145546000Y-116696333D01*
X145279333Y-116696333D01*
X146279333Y-116329666D02*
X146146000Y-116329666D01*
X146079333Y-116363000D01*
X146046000Y-116396333D01*
X145979333Y-116496333D01*
X145946000Y-116629666D01*
X145946000Y-116896333D01*
X145979333Y-116963000D01*
X146012666Y-116996333D01*
X146079333Y-117029666D01*
X146212666Y-117029666D01*
X146279333Y-116996333D01*
X146312666Y-116963000D01*
X146346000Y-116896333D01*
X146346000Y-116729666D01*
X146312666Y-116663000D01*
X146279333Y-116629666D01*
X146212666Y-116596333D01*
X146079333Y-116596333D01*
X146012666Y-116629666D01*
X145979333Y-116663000D01*
X145946000Y-116729666D01*
X140980333Y-96455666D02*
X140747000Y-96122333D01*
X140580333Y-96455666D02*
X140580333Y-95755666D01*
X140847000Y-95755666D01*
X140913666Y-95789000D01*
X140947000Y-95822333D01*
X140980333Y-95889000D01*
X140980333Y-95989000D01*
X140947000Y-96055666D01*
X140913666Y-96089000D01*
X140847000Y-96122333D01*
X140580333Y-96122333D01*
X141613666Y-95755666D02*
X141280333Y-95755666D01*
X141247000Y-96089000D01*
X141280333Y-96055666D01*
X141347000Y-96022333D01*
X141513666Y-96022333D01*
X141580333Y-96055666D01*
X141613666Y-96089000D01*
X141647000Y-96155666D01*
X141647000Y-96322333D01*
X141613666Y-96389000D01*
X141580333Y-96422333D01*
X141513666Y-96455666D01*
X141347000Y-96455666D01*
X141280333Y-96422333D01*
X141247000Y-96389000D01*
X140980333Y-110679666D02*
X140747000Y-110346333D01*
X140580333Y-110679666D02*
X140580333Y-109979666D01*
X140847000Y-109979666D01*
X140913666Y-110013000D01*
X140947000Y-110046333D01*
X140980333Y-110113000D01*
X140980333Y-110213000D01*
X140947000Y-110279666D01*
X140913666Y-110313000D01*
X140847000Y-110346333D01*
X140580333Y-110346333D01*
X141580333Y-110213000D02*
X141580333Y-110679666D01*
X141413666Y-109946333D02*
X141247000Y-110446333D01*
X141680333Y-110446333D01*
X140980333Y-108647666D02*
X140747000Y-108314333D01*
X140580333Y-108647666D02*
X140580333Y-107947666D01*
X140847000Y-107947666D01*
X140913666Y-107981000D01*
X140947000Y-108014333D01*
X140980333Y-108081000D01*
X140980333Y-108181000D01*
X140947000Y-108247666D01*
X140913666Y-108281000D01*
X140847000Y-108314333D01*
X140580333Y-108314333D01*
X141213666Y-107947666D02*
X141647000Y-107947666D01*
X141413666Y-108214333D01*
X141513666Y-108214333D01*
X141580333Y-108247666D01*
X141613666Y-108281000D01*
X141647000Y-108347666D01*
X141647000Y-108514333D01*
X141613666Y-108581000D01*
X141580333Y-108614333D01*
X141513666Y-108647666D01*
X141313666Y-108647666D01*
X141247000Y-108614333D01*
X141213666Y-108581000D01*
X169665666Y-86930666D02*
X169432333Y-86597333D01*
X169265666Y-86930666D02*
X169265666Y-86230666D01*
X169532333Y-86230666D01*
X169598999Y-86264000D01*
X169632333Y-86297333D01*
X169665666Y-86364000D01*
X169665666Y-86464000D01*
X169632333Y-86530666D01*
X169598999Y-86564000D01*
X169532333Y-86597333D01*
X169265666Y-86597333D01*
X169932333Y-86297333D02*
X169965666Y-86264000D01*
X170032333Y-86230666D01*
X170198999Y-86230666D01*
X170265666Y-86264000D01*
X170298999Y-86297333D01*
X170332333Y-86364000D01*
X170332333Y-86430666D01*
X170298999Y-86530666D01*
X169898999Y-86930666D01*
X170332333Y-86930666D01*
X169665666Y-84898666D02*
X169432333Y-84565333D01*
X169265666Y-84898666D02*
X169265666Y-84198666D01*
X169532333Y-84198666D01*
X169598999Y-84232000D01*
X169632333Y-84265333D01*
X169665666Y-84332000D01*
X169665666Y-84432000D01*
X169632333Y-84498666D01*
X169598999Y-84532000D01*
X169532333Y-84565333D01*
X169265666Y-84565333D01*
X170332333Y-84898666D02*
X169932333Y-84898666D01*
X170132333Y-84898666D02*
X170132333Y-84198666D01*
X170065666Y-84298666D01*
X169998999Y-84365333D01*
X169932333Y-84398666D01*
X169732333Y-92077333D02*
X169665666Y-92044000D01*
X169599000Y-91977333D01*
X169499000Y-91877333D01*
X169432333Y-91844000D01*
X169365666Y-91844000D01*
X169399000Y-92010666D02*
X169332333Y-91977333D01*
X169265666Y-91910666D01*
X169232333Y-91777333D01*
X169232333Y-91544000D01*
X169265666Y-91410666D01*
X169332333Y-91344000D01*
X169399000Y-91310666D01*
X169532333Y-91310666D01*
X169599000Y-91344000D01*
X169665666Y-91410666D01*
X169699000Y-91544000D01*
X169699000Y-91777333D01*
X169665666Y-91910666D01*
X169599000Y-91977333D01*
X169532333Y-92010666D01*
X169399000Y-92010666D01*
X170365666Y-92010666D02*
X169965666Y-92010666D01*
X170165666Y-92010666D02*
X170165666Y-91310666D01*
X170099000Y-91410666D01*
X170032333Y-91477333D01*
X169965666Y-91510666D01*
X151700666Y-82304666D02*
X151000666Y-82304666D01*
X151000666Y-82138000D01*
X151034000Y-82038000D01*
X151100666Y-81971333D01*
X151167333Y-81938000D01*
X151300666Y-81904666D01*
X151400666Y-81904666D01*
X151534000Y-81938000D01*
X151600666Y-81971333D01*
X151667333Y-82038000D01*
X151700666Y-82138000D01*
X151700666Y-82304666D01*
X151234000Y-81304666D02*
X151700666Y-81304666D01*
X150967333Y-81471333D02*
X151467333Y-81638000D01*
X151467333Y-81204666D01*
X154240666Y-82304666D02*
X153540666Y-82304666D01*
X153540666Y-82138000D01*
X153574000Y-82038000D01*
X153640666Y-81971333D01*
X153707333Y-81938000D01*
X153840666Y-81904666D01*
X153940666Y-81904666D01*
X154074000Y-81938000D01*
X154140666Y-81971333D01*
X154207333Y-82038000D01*
X154240666Y-82138000D01*
X154240666Y-82304666D01*
X153540666Y-81671333D02*
X153540666Y-81238000D01*
X153807333Y-81471333D01*
X153807333Y-81371333D01*
X153840666Y-81304666D01*
X153874000Y-81271333D01*
X153940666Y-81238000D01*
X154107333Y-81238000D01*
X154174000Y-81271333D01*
X154207333Y-81304666D01*
X154240666Y-81371333D01*
X154240666Y-81571333D01*
X154207333Y-81638000D01*
X154174000Y-81671333D01*
X156780666Y-82304666D02*
X156080666Y-82304666D01*
X156080666Y-82138000D01*
X156114000Y-82038000D01*
X156180666Y-81971333D01*
X156247333Y-81938000D01*
X156380666Y-81904666D01*
X156480666Y-81904666D01*
X156614000Y-81938000D01*
X156680666Y-81971333D01*
X156747333Y-82038000D01*
X156780666Y-82138000D01*
X156780666Y-82304666D01*
X156147333Y-81638000D02*
X156114000Y-81604666D01*
X156080666Y-81538000D01*
X156080666Y-81371333D01*
X156114000Y-81304666D01*
X156147333Y-81271333D01*
X156214000Y-81238000D01*
X156280666Y-81238000D01*
X156380666Y-81271333D01*
X156780666Y-81671333D01*
X156780666Y-81238000D01*
X149160666Y-82304666D02*
X148460666Y-82304666D01*
X148460666Y-82138000D01*
X148494000Y-82038000D01*
X148560666Y-81971333D01*
X148627333Y-81938000D01*
X148760666Y-81904666D01*
X148860666Y-81904666D01*
X148994000Y-81938000D01*
X149060666Y-81971333D01*
X149127333Y-82038000D01*
X149160666Y-82138000D01*
X149160666Y-82304666D01*
X149160666Y-81238000D02*
X149160666Y-81638000D01*
X149160666Y-81438000D02*
X148460666Y-81438000D01*
X148560666Y-81504666D01*
X148627333Y-81571333D01*
X148660666Y-81638000D01*
X140980333Y-106549000D02*
X140946999Y-106582333D01*
X140846999Y-106615666D01*
X140780333Y-106615666D01*
X140680333Y-106582333D01*
X140613666Y-106515666D01*
X140580333Y-106449000D01*
X140546999Y-106315666D01*
X140546999Y-106215666D01*
X140580333Y-106082333D01*
X140613666Y-106015666D01*
X140680333Y-105949000D01*
X140780333Y-105915666D01*
X140846999Y-105915666D01*
X140946999Y-105949000D01*
X140980333Y-105982333D01*
X141646999Y-106615666D02*
X141246999Y-106615666D01*
X141446999Y-106615666D02*
X141446999Y-105915666D01*
X141380333Y-106015666D01*
X141313666Y-106082333D01*
X141246999Y-106115666D01*
X142046999Y-106215666D02*
X141980333Y-106182333D01*
X141946999Y-106149000D01*
X141913666Y-106082333D01*
X141913666Y-106049000D01*
X141946999Y-105982333D01*
X141980333Y-105949000D01*
X142046999Y-105915666D01*
X142180333Y-105915666D01*
X142246999Y-105949000D01*
X142280333Y-105982333D01*
X142313666Y-106049000D01*
X142313666Y-106082333D01*
X142280333Y-106149000D01*
X142246999Y-106182333D01*
X142180333Y-106215666D01*
X142046999Y-106215666D01*
X141980333Y-106249000D01*
X141946999Y-106282333D01*
X141913666Y-106349000D01*
X141913666Y-106482333D01*
X141946999Y-106549000D01*
X141980333Y-106582333D01*
X142046999Y-106615666D01*
X142180333Y-106615666D01*
X142246999Y-106582333D01*
X142280333Y-106549000D01*
X142313666Y-106482333D01*
X142313666Y-106349000D01*
X142280333Y-106282333D01*
X142246999Y-106249000D01*
X142180333Y-106215666D01*
X117152000Y-110359000D02*
X117118666Y-110392333D01*
X117018666Y-110425666D01*
X116952000Y-110425666D01*
X116852000Y-110392333D01*
X116785333Y-110325666D01*
X116752000Y-110259000D01*
X116718666Y-110125666D01*
X116718666Y-110025666D01*
X116752000Y-109892333D01*
X116785333Y-109825666D01*
X116852000Y-109759000D01*
X116952000Y-109725666D01*
X117018666Y-109725666D01*
X117118666Y-109759000D01*
X117152000Y-109792333D01*
X117818666Y-110425666D02*
X117418666Y-110425666D01*
X117618666Y-110425666D02*
X117618666Y-109725666D01*
X117552000Y-109825666D01*
X117485333Y-109892333D01*
X117418666Y-109925666D01*
X118052000Y-109725666D02*
X118518666Y-109725666D01*
X118218666Y-110425666D01*
X144776000Y-92271000D02*
X144809333Y-92304333D01*
X144842666Y-92404333D01*
X144842666Y-92471000D01*
X144809333Y-92571000D01*
X144742666Y-92637666D01*
X144676000Y-92671000D01*
X144542666Y-92704333D01*
X144442666Y-92704333D01*
X144309333Y-92671000D01*
X144242666Y-92637666D01*
X144176000Y-92571000D01*
X144142666Y-92471000D01*
X144142666Y-92404333D01*
X144176000Y-92304333D01*
X144209333Y-92271000D01*
X144842666Y-91604333D02*
X144842666Y-92004333D01*
X144842666Y-91804333D02*
X144142666Y-91804333D01*
X144242666Y-91871000D01*
X144309333Y-91937666D01*
X144342666Y-92004333D01*
X144142666Y-91004333D02*
X144142666Y-91137666D01*
X144176000Y-91204333D01*
X144209333Y-91237666D01*
X144309333Y-91304333D01*
X144442666Y-91337666D01*
X144709333Y-91337666D01*
X144776000Y-91304333D01*
X144809333Y-91271000D01*
X144842666Y-91204333D01*
X144842666Y-91071000D01*
X144809333Y-91004333D01*
X144776000Y-90971000D01*
X144709333Y-90937666D01*
X144542666Y-90937666D01*
X144476000Y-90971000D01*
X144442666Y-91004333D01*
X144409333Y-91071000D01*
X144409333Y-91204333D01*
X144442666Y-91271000D01*
X144476000Y-91304333D01*
X144542666Y-91337666D01*
X117152000Y-106549000D02*
X117118666Y-106582333D01*
X117018666Y-106615666D01*
X116952000Y-106615666D01*
X116852000Y-106582333D01*
X116785333Y-106515666D01*
X116752000Y-106449000D01*
X116718666Y-106315666D01*
X116718666Y-106215666D01*
X116752000Y-106082333D01*
X116785333Y-106015666D01*
X116852000Y-105949000D01*
X116952000Y-105915666D01*
X117018666Y-105915666D01*
X117118666Y-105949000D01*
X117152000Y-105982333D01*
X117818666Y-106615666D02*
X117418666Y-106615666D01*
X117618666Y-106615666D02*
X117618666Y-105915666D01*
X117552000Y-106015666D01*
X117485333Y-106082333D01*
X117418666Y-106115666D01*
X118418666Y-106149000D02*
X118418666Y-106615666D01*
X118252000Y-105882333D02*
X118085333Y-106382333D01*
X118518666Y-106382333D01*
X146935000Y-92271000D02*
X146968333Y-92304333D01*
X147001666Y-92404333D01*
X147001666Y-92471000D01*
X146968333Y-92571000D01*
X146901666Y-92637666D01*
X146835000Y-92671000D01*
X146701666Y-92704333D01*
X146601666Y-92704333D01*
X146468333Y-92671000D01*
X146401666Y-92637666D01*
X146335000Y-92571000D01*
X146301666Y-92471000D01*
X146301666Y-92404333D01*
X146335000Y-92304333D01*
X146368333Y-92271000D01*
X147001666Y-91604333D02*
X147001666Y-92004333D01*
X147001666Y-91804333D02*
X146301666Y-91804333D01*
X146401666Y-91871000D01*
X146468333Y-91937666D01*
X146501666Y-92004333D01*
X146301666Y-91371000D02*
X146301666Y-90937666D01*
X146568333Y-91171000D01*
X146568333Y-91071000D01*
X146601666Y-91004333D01*
X146635000Y-90971000D01*
X146701666Y-90937666D01*
X146868333Y-90937666D01*
X146935000Y-90971000D01*
X146968333Y-91004333D01*
X147001666Y-91071000D01*
X147001666Y-91271000D01*
X146968333Y-91337666D01*
X146935000Y-91371000D01*
X146935000Y-81904667D02*
X146968333Y-81938000D01*
X147001666Y-82038000D01*
X147001666Y-82104667D01*
X146968333Y-82204667D01*
X146901666Y-82271333D01*
X146835000Y-82304667D01*
X146701666Y-82338000D01*
X146601666Y-82338000D01*
X146468333Y-82304667D01*
X146401666Y-82271333D01*
X146335000Y-82204667D01*
X146301666Y-82104667D01*
X146301666Y-82038000D01*
X146335000Y-81938000D01*
X146368333Y-81904667D01*
X147001666Y-81238000D02*
X147001666Y-81638000D01*
X147001666Y-81438000D02*
X146301666Y-81438000D01*
X146401666Y-81504667D01*
X146468333Y-81571333D01*
X146501666Y-81638000D01*
X146368333Y-80971333D02*
X146335000Y-80938000D01*
X146301666Y-80871333D01*
X146301666Y-80704667D01*
X146335000Y-80638000D01*
X146368333Y-80604667D01*
X146435000Y-80571333D01*
X146501666Y-80571333D01*
X146601666Y-80604667D01*
X147001666Y-81004667D01*
X147001666Y-80571333D01*
X163126000Y-99056000D02*
X163092666Y-99089333D01*
X162992666Y-99122666D01*
X162926000Y-99122666D01*
X162826000Y-99089333D01*
X162759333Y-99022666D01*
X162726000Y-98956000D01*
X162692666Y-98822666D01*
X162692666Y-98722666D01*
X162726000Y-98589333D01*
X162759333Y-98522666D01*
X162826000Y-98456000D01*
X162926000Y-98422666D01*
X162992666Y-98422666D01*
X163092666Y-98456000D01*
X163126000Y-98489333D01*
X163792666Y-99122666D02*
X163392666Y-99122666D01*
X163592666Y-99122666D02*
X163592666Y-98422666D01*
X163526000Y-98522666D01*
X163459333Y-98589333D01*
X163392666Y-98622666D01*
X164459333Y-99122666D02*
X164059333Y-99122666D01*
X164259333Y-99122666D02*
X164259333Y-98422666D01*
X164192666Y-98522666D01*
X164126000Y-98589333D01*
X164059333Y-98622666D01*
X140980333Y-104517000D02*
X140946999Y-104550333D01*
X140846999Y-104583666D01*
X140780333Y-104583666D01*
X140680333Y-104550333D01*
X140613666Y-104483666D01*
X140580333Y-104417000D01*
X140546999Y-104283666D01*
X140546999Y-104183666D01*
X140580333Y-104050333D01*
X140613666Y-103983666D01*
X140680333Y-103917000D01*
X140780333Y-103883666D01*
X140846999Y-103883666D01*
X140946999Y-103917000D01*
X140980333Y-103950333D01*
X141646999Y-104583666D02*
X141246999Y-104583666D01*
X141446999Y-104583666D02*
X141446999Y-103883666D01*
X141380333Y-103983666D01*
X141313666Y-104050333D01*
X141246999Y-104083666D01*
X142080333Y-103883666D02*
X142146999Y-103883666D01*
X142213666Y-103917000D01*
X142246999Y-103950333D01*
X142280333Y-104017000D01*
X142313666Y-104150333D01*
X142313666Y-104317000D01*
X142280333Y-104450333D01*
X142246999Y-104517000D01*
X142213666Y-104550333D01*
X142146999Y-104583666D01*
X142080333Y-104583666D01*
X142013666Y-104550333D01*
X141980333Y-104517000D01*
X141946999Y-104450333D01*
X141913666Y-104317000D01*
X141913666Y-104150333D01*
X141946999Y-104017000D01*
X141980333Y-103950333D01*
X142013666Y-103917000D01*
X142080333Y-103883666D01*
X149094000Y-111368666D02*
X149127333Y-111402000D01*
X149160666Y-111502000D01*
X149160666Y-111568666D01*
X149127333Y-111668666D01*
X149060666Y-111735333D01*
X148994000Y-111768666D01*
X148860666Y-111802000D01*
X148760666Y-111802000D01*
X148627333Y-111768666D01*
X148560666Y-111735333D01*
X148494000Y-111668666D01*
X148460666Y-111568666D01*
X148460666Y-111502000D01*
X148494000Y-111402000D01*
X148527333Y-111368666D01*
X148760666Y-110968666D02*
X148727333Y-111035333D01*
X148694000Y-111068666D01*
X148627333Y-111102000D01*
X148594000Y-111102000D01*
X148527333Y-111068666D01*
X148494000Y-111035333D01*
X148460666Y-110968666D01*
X148460666Y-110835333D01*
X148494000Y-110768666D01*
X148527333Y-110735333D01*
X148594000Y-110702000D01*
X148627333Y-110702000D01*
X148694000Y-110735333D01*
X148727333Y-110768666D01*
X148760666Y-110835333D01*
X148760666Y-110968666D01*
X148794000Y-111035333D01*
X148827333Y-111068666D01*
X148894000Y-111102000D01*
X149027333Y-111102000D01*
X149094000Y-111068666D01*
X149127333Y-111035333D01*
X149160666Y-110968666D01*
X149160666Y-110835333D01*
X149127333Y-110768666D01*
X149094000Y-110735333D01*
X149027333Y-110702000D01*
X148894000Y-110702000D01*
X148827333Y-110735333D01*
X148794000Y-110768666D01*
X148760666Y-110835333D01*
X153031000Y-111432166D02*
X153064333Y-111465500D01*
X153097666Y-111565500D01*
X153097666Y-111632166D01*
X153064333Y-111732166D01*
X152997666Y-111798833D01*
X152931000Y-111832166D01*
X152797666Y-111865500D01*
X152697666Y-111865500D01*
X152564333Y-111832166D01*
X152497666Y-111798833D01*
X152431000Y-111732166D01*
X152397666Y-111632166D01*
X152397666Y-111565500D01*
X152431000Y-111465500D01*
X152464333Y-111432166D01*
X152397666Y-111198833D02*
X152397666Y-110732166D01*
X153097666Y-111032166D01*
X135265333Y-89150000D02*
X135232000Y-89183333D01*
X135132000Y-89216666D01*
X135065333Y-89216666D01*
X134965333Y-89183333D01*
X134898666Y-89116666D01*
X134865333Y-89050000D01*
X134832000Y-88916666D01*
X134832000Y-88816666D01*
X134865333Y-88683333D01*
X134898666Y-88616666D01*
X134965333Y-88550000D01*
X135065333Y-88516666D01*
X135132000Y-88516666D01*
X135232000Y-88550000D01*
X135265333Y-88583333D01*
X135865333Y-88516666D02*
X135732000Y-88516666D01*
X135665333Y-88550000D01*
X135632000Y-88583333D01*
X135565333Y-88683333D01*
X135532000Y-88816666D01*
X135532000Y-89083333D01*
X135565333Y-89150000D01*
X135598666Y-89183333D01*
X135665333Y-89216666D01*
X135798666Y-89216666D01*
X135865333Y-89183333D01*
X135898666Y-89150000D01*
X135932000Y-89083333D01*
X135932000Y-88916666D01*
X135898666Y-88850000D01*
X135865333Y-88816666D01*
X135798666Y-88783333D01*
X135665333Y-88783333D01*
X135598666Y-88816666D01*
X135565333Y-88850000D01*
X135532000Y-88916666D01*
X169665666Y-95119000D02*
X169632333Y-95152333D01*
X169532333Y-95185666D01*
X169465666Y-95185666D01*
X169365666Y-95152333D01*
X169298999Y-95085666D01*
X169265666Y-95019000D01*
X169232333Y-94885666D01*
X169232333Y-94785666D01*
X169265666Y-94652333D01*
X169298999Y-94585666D01*
X169365666Y-94519000D01*
X169465666Y-94485666D01*
X169532333Y-94485666D01*
X169632333Y-94519000D01*
X169665666Y-94552333D01*
X170265666Y-94719000D02*
X170265666Y-95185666D01*
X170098999Y-94452333D02*
X169932333Y-94952333D01*
X170365666Y-94952333D01*
X163078333Y-101088000D02*
X163045000Y-101121333D01*
X162945000Y-101154666D01*
X162878333Y-101154666D01*
X162778333Y-101121333D01*
X162711666Y-101054666D01*
X162678333Y-100988000D01*
X162645000Y-100854666D01*
X162645000Y-100754666D01*
X162678333Y-100621333D01*
X162711666Y-100554666D01*
X162778333Y-100488000D01*
X162878333Y-100454666D01*
X162945000Y-100454666D01*
X163045000Y-100488000D01*
X163078333Y-100521333D01*
X163311666Y-100454666D02*
X163745000Y-100454666D01*
X163511666Y-100721333D01*
X163611666Y-100721333D01*
X163678333Y-100754666D01*
X163711666Y-100788000D01*
X163745000Y-100854666D01*
X163745000Y-101021333D01*
X163711666Y-101088000D01*
X163678333Y-101121333D01*
X163611666Y-101154666D01*
X163411666Y-101154666D01*
X163345000Y-101121333D01*
X163311666Y-101088000D01*
X140980333Y-98421000D02*
X140947000Y-98454333D01*
X140847000Y-98487666D01*
X140780333Y-98487666D01*
X140680333Y-98454333D01*
X140613666Y-98387666D01*
X140580333Y-98321000D01*
X140547000Y-98187666D01*
X140547000Y-98087666D01*
X140580333Y-97954333D01*
X140613666Y-97887666D01*
X140680333Y-97821000D01*
X140780333Y-97787666D01*
X140847000Y-97787666D01*
X140947000Y-97821000D01*
X140980333Y-97854333D01*
X141247000Y-97854333D02*
X141280333Y-97821000D01*
X141347000Y-97787666D01*
X141513666Y-97787666D01*
X141580333Y-97821000D01*
X141613666Y-97854333D01*
X141647000Y-97921000D01*
X141647000Y-97987666D01*
X141613666Y-98087666D01*
X141213666Y-98487666D01*
X141647000Y-98487666D01*
X169665666Y-88896000D02*
X169632333Y-88929333D01*
X169532333Y-88962666D01*
X169465666Y-88962666D01*
X169365666Y-88929333D01*
X169298999Y-88862666D01*
X169265666Y-88796000D01*
X169232333Y-88662666D01*
X169232333Y-88562666D01*
X169265666Y-88429333D01*
X169298999Y-88362666D01*
X169365666Y-88296000D01*
X169465666Y-88262666D01*
X169532333Y-88262666D01*
X169632333Y-88296000D01*
X169665666Y-88329333D01*
X170332333Y-88962666D02*
X169932333Y-88962666D01*
X170132333Y-88962666D02*
X170132333Y-88262666D01*
X170065666Y-88362666D01*
X169998999Y-88429333D01*
X169932333Y-88462666D01*
X169773666Y-99565666D02*
X169773666Y-100132333D01*
X169807000Y-100199000D01*
X169840333Y-100232333D01*
X169907000Y-100265666D01*
X170040333Y-100265666D01*
X170107000Y-100232333D01*
X170140333Y-100199000D01*
X170173666Y-100132333D01*
X170173666Y-99565666D01*
X170807000Y-99799000D02*
X170807000Y-100265666D01*
X170640333Y-99532333D02*
X170473666Y-100032333D01*
X170907000Y-100032333D01*
X149517166Y-100645166D02*
X149517166Y-101211833D01*
X149550500Y-101278500D01*
X149583833Y-101311833D01*
X149650500Y-101345166D01*
X149783833Y-101345166D01*
X149850500Y-101311833D01*
X149883833Y-101278500D01*
X149917166Y-101211833D01*
X149917166Y-100645166D01*
X150217166Y-100711833D02*
X150250500Y-100678500D01*
X150317166Y-100645166D01*
X150483833Y-100645166D01*
X150550500Y-100678500D01*
X150583833Y-100711833D01*
X150617166Y-100778500D01*
X150617166Y-100845166D01*
X150583833Y-100945166D01*
X150183833Y-101345166D01*
X150617166Y-101345166D01*
X128415000Y-89190000D02*
X128381666Y-89223333D01*
X128281666Y-89256666D01*
X128215000Y-89256666D01*
X128115000Y-89223333D01*
X128048333Y-89156666D01*
X128015000Y-89090000D01*
X127981666Y-88956666D01*
X127981666Y-88856666D01*
X128015000Y-88723333D01*
X128048333Y-88656666D01*
X128115000Y-88590000D01*
X128215000Y-88556666D01*
X128281666Y-88556666D01*
X128381666Y-88590000D01*
X128415000Y-88623333D01*
X128681666Y-88623333D02*
X128715000Y-88590000D01*
X128781666Y-88556666D01*
X128948333Y-88556666D01*
X129015000Y-88590000D01*
X129048333Y-88623333D01*
X129081666Y-88690000D01*
X129081666Y-88756666D01*
X129048333Y-88856666D01*
X128648333Y-89256666D01*
X129081666Y-89256666D01*
X129348333Y-88623333D02*
X129381666Y-88590000D01*
X129448333Y-88556666D01*
X129615000Y-88556666D01*
X129681666Y-88590000D01*
X129715000Y-88623333D01*
X129748333Y-88690000D01*
X129748333Y-88756666D01*
X129715000Y-88856666D01*
X129315000Y-89256666D01*
X129748333Y-89256666D01*
X131776000Y-87197333D02*
X131776000Y-87430666D01*
X132142666Y-87430666D02*
X131442666Y-87430666D01*
X131442666Y-87097333D01*
X131776000Y-86597333D02*
X131809333Y-86497333D01*
X131842666Y-86464000D01*
X131909333Y-86430666D01*
X132009333Y-86430666D01*
X132076000Y-86464000D01*
X132109333Y-86497333D01*
X132142666Y-86564000D01*
X132142666Y-86830666D01*
X131442666Y-86830666D01*
X131442666Y-86597333D01*
X131476000Y-86530666D01*
X131509333Y-86497333D01*
X131576000Y-86464000D01*
X131642666Y-86464000D01*
X131709333Y-86497333D01*
X131742666Y-86530666D01*
X131776000Y-86597333D01*
X131776000Y-86830666D01*
X131442666Y-86197333D02*
X131442666Y-85764000D01*
X131709333Y-85997333D01*
X131709333Y-85897333D01*
X131742666Y-85830666D01*
X131776000Y-85797333D01*
X131842666Y-85764000D01*
X132009333Y-85764000D01*
X132076000Y-85797333D01*
X132109333Y-85830666D01*
X132142666Y-85897333D01*
X132142666Y-86097333D01*
X132109333Y-86164000D01*
X132076000Y-86197333D01*
X118695000Y-94817333D02*
X118695000Y-95050666D01*
X119061666Y-95050666D02*
X118361666Y-95050666D01*
X118361666Y-94717333D01*
X118695000Y-94217333D02*
X118728333Y-94117333D01*
X118761666Y-94084000D01*
X118828333Y-94050666D01*
X118928333Y-94050666D01*
X118995000Y-94084000D01*
X119028333Y-94117333D01*
X119061666Y-94184000D01*
X119061666Y-94450666D01*
X118361666Y-94450666D01*
X118361666Y-94217333D01*
X118395000Y-94150666D01*
X118428333Y-94117333D01*
X118495000Y-94084000D01*
X118561666Y-94084000D01*
X118628333Y-94117333D01*
X118661666Y-94150666D01*
X118695000Y-94217333D01*
X118695000Y-94450666D01*
X118428333Y-93784000D02*
X118395000Y-93750666D01*
X118361666Y-93684000D01*
X118361666Y-93517333D01*
X118395000Y-93450666D01*
X118428333Y-93417333D01*
X118495000Y-93384000D01*
X118561666Y-93384000D01*
X118661666Y-93417333D01*
X119061666Y-93817333D01*
X119061666Y-93384000D01*
X116985333Y-103709000D02*
X116752000Y-103709000D01*
X116752000Y-104075666D02*
X116752000Y-103375666D01*
X117085333Y-103375666D01*
X117585333Y-103709000D02*
X117685333Y-103742333D01*
X117718667Y-103775666D01*
X117752000Y-103842333D01*
X117752000Y-103942333D01*
X117718667Y-104009000D01*
X117685333Y-104042333D01*
X117618667Y-104075666D01*
X117352000Y-104075666D01*
X117352000Y-103375666D01*
X117585333Y-103375666D01*
X117652000Y-103409000D01*
X117685333Y-103442333D01*
X117718667Y-103509000D01*
X117718667Y-103575666D01*
X117685333Y-103642333D01*
X117652000Y-103675666D01*
X117585333Y-103709000D01*
X117352000Y-103709000D01*
X118418667Y-104075666D02*
X118018667Y-104075666D01*
X118218667Y-104075666D02*
X118218667Y-103375666D01*
X118152000Y-103475666D01*
X118085333Y-103542333D01*
X118018667Y-103575666D01*
X134297000Y-101659500D02*
X134263666Y-101692833D01*
X134163666Y-101726166D01*
X134097000Y-101726166D01*
X133997000Y-101692833D01*
X133930333Y-101626166D01*
X133897000Y-101559500D01*
X133863666Y-101426166D01*
X133863666Y-101326166D01*
X133897000Y-101192833D01*
X133930333Y-101126166D01*
X133997000Y-101059500D01*
X134097000Y-101026166D01*
X134163666Y-101026166D01*
X134263666Y-101059500D01*
X134297000Y-101092833D01*
X134563666Y-101092833D02*
X134597000Y-101059500D01*
X134663666Y-101026166D01*
X134830333Y-101026166D01*
X134897000Y-101059500D01*
X134930333Y-101092833D01*
X134963666Y-101159500D01*
X134963666Y-101226166D01*
X134930333Y-101326166D01*
X134530333Y-101726166D01*
X134963666Y-101726166D01*
X135397000Y-101026166D02*
X135463666Y-101026166D01*
X135530333Y-101059500D01*
X135563666Y-101092833D01*
X135597000Y-101159500D01*
X135630333Y-101292833D01*
X135630333Y-101459500D01*
X135597000Y-101592833D01*
X135563666Y-101659500D01*
X135530333Y-101692833D01*
X135463666Y-101726166D01*
X135397000Y-101726166D01*
X135330333Y-101692833D01*
X135297000Y-101659500D01*
X135263666Y-101592833D01*
X135230333Y-101459500D01*
X135230333Y-101292833D01*
X135263666Y-101159500D01*
X135297000Y-101092833D01*
X135330333Y-101059500D01*
X135397000Y-101026166D01*
X124245000Y-94804666D02*
X124245000Y-94104666D01*
X124511666Y-94104666D01*
X124578333Y-94138000D01*
X124611666Y-94171333D01*
X124645000Y-94238000D01*
X124645000Y-94338000D01*
X124611666Y-94404666D01*
X124578333Y-94438000D01*
X124511666Y-94471333D01*
X124245000Y-94471333D01*
X124911666Y-94771333D02*
X125011666Y-94804666D01*
X125178333Y-94804666D01*
X125245000Y-94771333D01*
X125278333Y-94738000D01*
X125311666Y-94671333D01*
X125311666Y-94604666D01*
X125278333Y-94538000D01*
X125245000Y-94504666D01*
X125178333Y-94471333D01*
X125045000Y-94438000D01*
X124978333Y-94404666D01*
X124945000Y-94371333D01*
X124911666Y-94304666D01*
X124911666Y-94238000D01*
X124945000Y-94171333D01*
X124978333Y-94138000D01*
X125045000Y-94104666D01*
X125211666Y-94104666D01*
X125311666Y-94138000D01*
X125978333Y-94804666D02*
X125578333Y-94804666D01*
X125778333Y-94804666D02*
X125778333Y-94104666D01*
X125711666Y-94204666D01*
X125645000Y-94271333D01*
X125578333Y-94304666D01*
M02*
