M48
; DRILL file {KiCad (5.1.6)-1} date 08/11/20 14:22:35
; FORMAT={-:-/ absolute / inch / decimal}
; #@! TF.CreationDate,2020-08-11T14:22:35+03:00
; #@! TF.GenerationSoftware,Kicad,Pcbnew,(5.1.6)-1
; #@! TF.FileFunction,Plated,1,2,PTH
FMAT,2
INCH
T1C0.0118
T2C0.0157
T3C0.0394
T4C0.0423
%
G90
G05
T1
X4.28Y-3.74
X4.28Y-3.78
X4.28Y-4.09
X4.28Y-4.135
X4.315Y-3.74
X4.315Y-3.78
X4.315Y-4.09
X4.315Y-4.135
X4.495Y-3.74
X4.495Y-3.78
X4.495Y-4.09
X4.495Y-4.135
X4.505Y-4.475
X4.53Y-3.74
X4.53Y-3.78
X4.53Y-4.09
X4.53Y-4.135
X4.655Y-4.37
X4.705Y-4.24
X4.77Y-3.97
X4.97Y-4.235
X4.97Y-4.535
X5.005Y-4.02
X5.11Y-3.995
X5.17Y-4.085
X5.18Y-3.29
X5.33Y-4.235
X5.33Y-4.535
X5.36Y-4.345
X5.36Y-4.465
X5.37Y-3.705
X5.37Y-3.865
X5.42Y-3.44
X5.42Y-3.585
X5.545Y-4.185
X5.5875Y-3.8875
X5.5875Y-4.1875
X5.625Y-3.535
X5.625Y-4.265
X5.6261Y-3.8489
X5.655Y-3.21
X5.655Y-3.745
X5.655Y-3.815
X5.655Y-4.685
X5.725Y-4.265
X5.805Y-3.88
X5.805Y-3.9668
X5.805Y-4.4225
X5.805Y-4.51
X5.805Y-4.595
X5.8257Y-3.9875
X5.8495Y-3.908
X5.925Y-3.835
X5.925Y-3.9
X5.935Y-3.93
X5.97Y-3.985
X5.975Y-4.375
X5.98Y-4.185
X6.16Y-3.775
X6.16Y-3.83
X6.21Y-4.51
X6.2375Y-4.13
X6.25Y-3.29
X6.3579Y-3.7271
X6.365Y-4.0275
X6.47Y-3.725
X6.4907Y-3.83
X6.525Y-3.875
X6.525Y-3.9006
X6.53Y-3.825
X6.54Y-4.14
X6.7425Y-3.785
X6.88Y-3.49
X6.88Y-3.5725
X6.92Y-3.65
X6.94Y-3.865
T2
X5.33Y-3.33
X5.33Y-4.185
X5.7151Y-3.3776
X6.57Y-3.4475
X6.57Y-3.7525
X7.1172Y-3.8028
X7.1823Y-3.7873
T3
X4.975Y-3.6
X5.1719Y-3.6
X7.2583Y-3.7378
X7.2583Y-3.8378
X7.2583Y-3.9378
X7.2583Y-4.0378
X7.2583Y-4.1378
X7.3583Y-3.7378
X7.3583Y-3.8378
X7.3583Y-3.9378
X7.3583Y-4.0378
X7.3583Y-4.1378
T4
X4.925Y-3.875
X5.025Y-3.875
X5.125Y-3.875
X5.225Y-3.875
T0
M30
