G04 #@! TF.GenerationSoftware,KiCad,Pcbnew,(5.1.6)-1*
G04 #@! TF.CreationDate,2020-08-11T14:22:33+03:00*
G04 #@! TF.ProjectId,Black Magic Probe V2.0,426c6163-6b20-44d6-9167-69632050726f,rev?*
G04 #@! TF.SameCoordinates,Original*
G04 #@! TF.FileFunction,Soldermask,Bot*
G04 #@! TF.FilePolarity,Negative*
%FSLAX46Y46*%
G04 Gerber Fmt 4.6, Leading zero omitted, Abs format (unit mm)*
G04 Created by KiCad (PCBNEW (5.1.6)-1) date 2020-08-11 14:22:33*
%MOMM*%
%LPD*%
G01*
G04 APERTURE LIST*
%ADD10C,0.100000*%
G04 APERTURE END LIST*
D10*
G36*
X113321152Y-117891311D02*
G01*
X113521516Y-117974305D01*
X113701846Y-118094798D01*
X113855202Y-118248154D01*
X113975695Y-118428484D01*
X114058689Y-118628848D01*
X114101000Y-118841561D01*
X114101000Y-119058439D01*
X114058689Y-119271152D01*
X113975695Y-119471516D01*
X113855202Y-119651846D01*
X113701846Y-119805202D01*
X113521516Y-119925695D01*
X113321152Y-120008689D01*
X113108439Y-120051000D01*
X112891561Y-120051000D01*
X112678848Y-120008689D01*
X112478484Y-119925695D01*
X112298154Y-119805202D01*
X112144798Y-119651846D01*
X112024305Y-119471516D01*
X111941311Y-119271152D01*
X111899000Y-119058439D01*
X111899000Y-118841561D01*
X111941311Y-118628848D01*
X112024305Y-118428484D01*
X112144798Y-118248154D01*
X112298154Y-118094798D01*
X112478484Y-117974305D01*
X112678848Y-117891311D01*
X112891561Y-117849000D01*
X113108439Y-117849000D01*
X113321152Y-117891311D01*
G37*
G36*
X184321152Y-114891311D02*
G01*
X184521516Y-114974305D01*
X184701846Y-115094798D01*
X184855202Y-115248154D01*
X184975695Y-115428484D01*
X185058689Y-115628848D01*
X185101000Y-115841561D01*
X185101000Y-116058439D01*
X185058689Y-116271152D01*
X184975695Y-116471516D01*
X184855202Y-116651846D01*
X184701846Y-116805202D01*
X184521516Y-116925695D01*
X184321152Y-117008689D01*
X184108439Y-117051000D01*
X183891561Y-117051000D01*
X183678848Y-117008689D01*
X183478484Y-116925695D01*
X183298154Y-116805202D01*
X183144798Y-116651846D01*
X183024305Y-116471516D01*
X182941311Y-116271152D01*
X182899000Y-116058439D01*
X182899000Y-115841561D01*
X182941311Y-115628848D01*
X183024305Y-115428484D01*
X183144798Y-115248154D01*
X183298154Y-115094798D01*
X183478484Y-114974305D01*
X183678848Y-114891311D01*
X183891561Y-114849000D01*
X184108439Y-114849000D01*
X184321152Y-114891311D01*
G37*
G36*
X187751000Y-105951000D02*
G01*
X186049000Y-105951000D01*
X186049000Y-104249000D01*
X187751000Y-104249000D01*
X187751000Y-105951000D01*
G37*
G36*
X184608230Y-104281703D02*
G01*
X184763097Y-104345851D01*
X184902481Y-104438985D01*
X185021015Y-104557519D01*
X185114149Y-104696903D01*
X185178297Y-104851770D01*
X185211000Y-105016183D01*
X185211000Y-105183817D01*
X185178297Y-105348230D01*
X185114149Y-105503097D01*
X185021015Y-105642481D01*
X184902481Y-105761015D01*
X184763097Y-105854149D01*
X184608230Y-105918297D01*
X184443817Y-105951000D01*
X184276183Y-105951000D01*
X184111770Y-105918297D01*
X183956903Y-105854149D01*
X183817519Y-105761015D01*
X183698985Y-105642481D01*
X183605851Y-105503097D01*
X183541703Y-105348230D01*
X183509000Y-105183817D01*
X183509000Y-105016183D01*
X183541703Y-104851770D01*
X183605851Y-104696903D01*
X183698985Y-104557519D01*
X183817519Y-104438985D01*
X183956903Y-104345851D01*
X184111770Y-104281703D01*
X184276183Y-104249000D01*
X184443817Y-104249000D01*
X184608230Y-104281703D01*
G37*
G36*
X187148230Y-101741703D02*
G01*
X187303097Y-101805851D01*
X187442481Y-101898985D01*
X187561015Y-102017519D01*
X187654149Y-102156903D01*
X187718297Y-102311770D01*
X187751000Y-102476183D01*
X187751000Y-102643817D01*
X187718297Y-102808230D01*
X187654149Y-102963097D01*
X187561015Y-103102481D01*
X187442481Y-103221015D01*
X187303097Y-103314149D01*
X187148230Y-103378297D01*
X186983817Y-103411000D01*
X186816183Y-103411000D01*
X186651770Y-103378297D01*
X186496903Y-103314149D01*
X186357519Y-103221015D01*
X186238985Y-103102481D01*
X186145851Y-102963097D01*
X186081703Y-102808230D01*
X186049000Y-102643817D01*
X186049000Y-102476183D01*
X186081703Y-102311770D01*
X186145851Y-102156903D01*
X186238985Y-102017519D01*
X186357519Y-101898985D01*
X186496903Y-101805851D01*
X186651770Y-101741703D01*
X186816183Y-101709000D01*
X186983817Y-101709000D01*
X187148230Y-101741703D01*
G37*
G36*
X184608230Y-101741703D02*
G01*
X184763097Y-101805851D01*
X184902481Y-101898985D01*
X185021015Y-102017519D01*
X185114149Y-102156903D01*
X185178297Y-102311770D01*
X185211000Y-102476183D01*
X185211000Y-102643817D01*
X185178297Y-102808230D01*
X185114149Y-102963097D01*
X185021015Y-103102481D01*
X184902481Y-103221015D01*
X184763097Y-103314149D01*
X184608230Y-103378297D01*
X184443817Y-103411000D01*
X184276183Y-103411000D01*
X184111770Y-103378297D01*
X183956903Y-103314149D01*
X183817519Y-103221015D01*
X183698985Y-103102481D01*
X183605851Y-102963097D01*
X183541703Y-102808230D01*
X183509000Y-102643817D01*
X183509000Y-102476183D01*
X183541703Y-102311770D01*
X183605851Y-102156903D01*
X183698985Y-102017519D01*
X183817519Y-101898985D01*
X183956903Y-101805851D01*
X184111770Y-101741703D01*
X184276183Y-101709000D01*
X184443817Y-101709000D01*
X184608230Y-101741703D01*
G37*
G36*
X112073379Y-101703781D02*
G01*
X112146136Y-101718253D01*
X112146139Y-101718254D01*
X112146138Y-101718254D01*
X112237309Y-101756018D01*
X112237312Y-101756020D01*
X112319369Y-101810848D01*
X112389152Y-101880631D01*
X112443980Y-101962688D01*
X112443982Y-101962691D01*
X112466692Y-102017519D01*
X112481747Y-102053864D01*
X112501000Y-102150656D01*
X112501000Y-102249344D01*
X112481747Y-102346136D01*
X112481746Y-102346138D01*
X112443982Y-102437309D01*
X112443980Y-102437312D01*
X112389152Y-102519369D01*
X112319369Y-102589152D01*
X112237557Y-102643816D01*
X112237309Y-102643982D01*
X112162976Y-102674771D01*
X112146136Y-102681747D01*
X112073379Y-102696219D01*
X112049345Y-102701000D01*
X111950655Y-102701000D01*
X111926621Y-102696219D01*
X111853864Y-102681747D01*
X111837024Y-102674771D01*
X111762691Y-102643982D01*
X111762443Y-102643816D01*
X111680631Y-102589152D01*
X111610848Y-102519369D01*
X111556020Y-102437312D01*
X111556018Y-102437309D01*
X111518254Y-102346138D01*
X111518253Y-102346136D01*
X111499000Y-102249344D01*
X111499000Y-102150656D01*
X111518253Y-102053864D01*
X111533308Y-102017519D01*
X111556018Y-101962691D01*
X111556020Y-101962688D01*
X111610848Y-101880631D01*
X111680631Y-101810848D01*
X111762688Y-101756020D01*
X111762691Y-101756018D01*
X111853862Y-101718254D01*
X111853861Y-101718254D01*
X111853864Y-101718253D01*
X111926621Y-101703781D01*
X111950655Y-101699000D01*
X112049345Y-101699000D01*
X112073379Y-101703781D01*
G37*
G36*
X187148230Y-99201703D02*
G01*
X187303097Y-99265851D01*
X187442481Y-99358985D01*
X187561015Y-99477519D01*
X187654149Y-99616903D01*
X187718297Y-99771770D01*
X187751000Y-99936183D01*
X187751000Y-100103817D01*
X187718297Y-100268230D01*
X187654149Y-100423097D01*
X187561015Y-100562481D01*
X187442481Y-100681015D01*
X187303097Y-100774149D01*
X187148230Y-100838297D01*
X186983817Y-100871000D01*
X186816183Y-100871000D01*
X186651770Y-100838297D01*
X186496903Y-100774149D01*
X186357519Y-100681015D01*
X186238985Y-100562481D01*
X186145851Y-100423097D01*
X186081703Y-100268230D01*
X186049000Y-100103817D01*
X186049000Y-99936183D01*
X186081703Y-99771770D01*
X186145851Y-99616903D01*
X186238985Y-99477519D01*
X186357519Y-99358985D01*
X186496903Y-99265851D01*
X186651770Y-99201703D01*
X186816183Y-99169000D01*
X186983817Y-99169000D01*
X187148230Y-99201703D01*
G37*
G36*
X184608230Y-99201703D02*
G01*
X184763097Y-99265851D01*
X184902481Y-99358985D01*
X185021015Y-99477519D01*
X185114149Y-99616903D01*
X185178297Y-99771770D01*
X185211000Y-99936183D01*
X185211000Y-100103817D01*
X185178297Y-100268230D01*
X185114149Y-100423097D01*
X185021015Y-100562481D01*
X184902481Y-100681015D01*
X184763097Y-100774149D01*
X184608230Y-100838297D01*
X184443817Y-100871000D01*
X184276183Y-100871000D01*
X184111770Y-100838297D01*
X183956903Y-100774149D01*
X183817519Y-100681015D01*
X183698985Y-100562481D01*
X183605851Y-100423097D01*
X183541703Y-100268230D01*
X183509000Y-100103817D01*
X183509000Y-99936183D01*
X183541703Y-99771770D01*
X183605851Y-99616903D01*
X183698985Y-99477519D01*
X183817519Y-99358985D01*
X183956903Y-99265851D01*
X184111770Y-99201703D01*
X184276183Y-99169000D01*
X184443817Y-99169000D01*
X184608230Y-99201703D01*
G37*
G36*
X127806725Y-97311676D02*
G01*
X127971851Y-97361766D01*
X128063677Y-97410848D01*
X128124037Y-97443111D01*
X128257422Y-97552578D01*
X128366889Y-97685962D01*
X128366891Y-97685966D01*
X128448234Y-97838148D01*
X128498324Y-98003274D01*
X128511000Y-98131972D01*
X128511000Y-98718028D01*
X128498324Y-98846726D01*
X128448234Y-99011852D01*
X128383585Y-99132801D01*
X128366889Y-99164038D01*
X128257422Y-99297422D01*
X128124038Y-99406889D01*
X128124034Y-99406891D01*
X127971852Y-99488234D01*
X127806726Y-99538324D01*
X127635000Y-99555238D01*
X127463275Y-99538324D01*
X127298149Y-99488234D01*
X127145967Y-99406891D01*
X127145963Y-99406889D01*
X127012579Y-99297422D01*
X126903112Y-99164038D01*
X126886413Y-99132797D01*
X126821766Y-99011852D01*
X126771676Y-98846726D01*
X126759000Y-98718028D01*
X126759000Y-98131973D01*
X126771676Y-98003275D01*
X126821766Y-97838149D01*
X126903109Y-97685967D01*
X126903111Y-97685963D01*
X127012578Y-97552578D01*
X127145962Y-97443111D01*
X127206322Y-97410848D01*
X127298148Y-97361766D01*
X127463274Y-97311676D01*
X127635000Y-97294762D01*
X127806725Y-97311676D01*
G37*
G36*
X130346725Y-97311676D02*
G01*
X130511851Y-97361766D01*
X130603677Y-97410848D01*
X130664037Y-97443111D01*
X130797422Y-97552578D01*
X130906889Y-97685962D01*
X130906891Y-97685966D01*
X130988234Y-97838148D01*
X131038324Y-98003274D01*
X131051000Y-98131972D01*
X131051000Y-98718028D01*
X131038324Y-98846726D01*
X130988234Y-99011852D01*
X130923585Y-99132801D01*
X130906889Y-99164038D01*
X130797422Y-99297422D01*
X130664038Y-99406889D01*
X130664034Y-99406891D01*
X130511852Y-99488234D01*
X130346726Y-99538324D01*
X130175000Y-99555238D01*
X130003275Y-99538324D01*
X129838149Y-99488234D01*
X129685967Y-99406891D01*
X129685963Y-99406889D01*
X129552579Y-99297422D01*
X129443112Y-99164038D01*
X129426413Y-99132797D01*
X129361766Y-99011852D01*
X129311676Y-98846726D01*
X129299000Y-98718028D01*
X129299000Y-98131973D01*
X129311676Y-98003275D01*
X129361766Y-97838149D01*
X129443109Y-97685967D01*
X129443111Y-97685963D01*
X129552578Y-97552578D01*
X129685962Y-97443111D01*
X129746322Y-97410848D01*
X129838148Y-97361766D01*
X130003274Y-97311676D01*
X130175000Y-97294762D01*
X130346725Y-97311676D01*
G37*
G36*
X132886725Y-97311676D02*
G01*
X133051851Y-97361766D01*
X133143677Y-97410848D01*
X133204037Y-97443111D01*
X133337422Y-97552578D01*
X133446889Y-97685962D01*
X133446891Y-97685966D01*
X133528234Y-97838148D01*
X133578324Y-98003274D01*
X133591000Y-98131972D01*
X133591000Y-98718028D01*
X133578324Y-98846726D01*
X133528234Y-99011852D01*
X133463585Y-99132801D01*
X133446889Y-99164038D01*
X133337422Y-99297422D01*
X133204038Y-99406889D01*
X133204034Y-99406891D01*
X133051852Y-99488234D01*
X132886726Y-99538324D01*
X132715000Y-99555238D01*
X132543275Y-99538324D01*
X132378149Y-99488234D01*
X132225967Y-99406891D01*
X132225963Y-99406889D01*
X132092579Y-99297422D01*
X131983112Y-99164038D01*
X131966413Y-99132797D01*
X131901766Y-99011852D01*
X131851676Y-98846726D01*
X131839000Y-98718028D01*
X131839000Y-98131973D01*
X131851676Y-98003275D01*
X131901766Y-97838149D01*
X131983109Y-97685967D01*
X131983111Y-97685963D01*
X132092578Y-97552578D01*
X132225962Y-97443111D01*
X132286322Y-97410848D01*
X132378148Y-97361766D01*
X132543274Y-97311676D01*
X132715000Y-97294762D01*
X132886725Y-97311676D01*
G37*
G36*
X125971000Y-99551000D02*
G01*
X124219000Y-99551000D01*
X124219000Y-97299000D01*
X125971000Y-97299000D01*
X125971000Y-99551000D01*
G37*
G36*
X184608230Y-96661703D02*
G01*
X184763097Y-96725851D01*
X184902481Y-96818985D01*
X185021015Y-96937519D01*
X185114149Y-97076903D01*
X185178297Y-97231770D01*
X185211000Y-97396183D01*
X185211000Y-97563817D01*
X185178297Y-97728230D01*
X185114149Y-97883097D01*
X185021015Y-98022481D01*
X184902481Y-98141015D01*
X184763097Y-98234149D01*
X184608230Y-98298297D01*
X184443817Y-98331000D01*
X184276183Y-98331000D01*
X184111770Y-98298297D01*
X183956903Y-98234149D01*
X183817519Y-98141015D01*
X183698985Y-98022481D01*
X183605851Y-97883097D01*
X183541703Y-97728230D01*
X183509000Y-97563817D01*
X183509000Y-97396183D01*
X183541703Y-97231770D01*
X183605851Y-97076903D01*
X183698985Y-96937519D01*
X183817519Y-96818985D01*
X183956903Y-96725851D01*
X184111770Y-96661703D01*
X184276183Y-96629000D01*
X184443817Y-96629000D01*
X184608230Y-96661703D01*
G37*
G36*
X187148230Y-96661703D02*
G01*
X187303097Y-96725851D01*
X187442481Y-96818985D01*
X187561015Y-96937519D01*
X187654149Y-97076903D01*
X187718297Y-97231770D01*
X187751000Y-97396183D01*
X187751000Y-97563817D01*
X187718297Y-97728230D01*
X187654149Y-97883097D01*
X187561015Y-98022481D01*
X187442481Y-98141015D01*
X187303097Y-98234149D01*
X187148230Y-98298297D01*
X186983817Y-98331000D01*
X186816183Y-98331000D01*
X186651770Y-98298297D01*
X186496903Y-98234149D01*
X186357519Y-98141015D01*
X186238985Y-98022481D01*
X186145851Y-97883097D01*
X186081703Y-97728230D01*
X186049000Y-97563817D01*
X186049000Y-97396183D01*
X186081703Y-97231770D01*
X186145851Y-97076903D01*
X186238985Y-96937519D01*
X186357519Y-96818985D01*
X186496903Y-96725851D01*
X186651770Y-96661703D01*
X186816183Y-96629000D01*
X186983817Y-96629000D01*
X187148230Y-96661703D01*
G37*
G36*
X112073379Y-97303781D02*
G01*
X112146136Y-97318253D01*
X112146139Y-97318254D01*
X112146138Y-97318254D01*
X112237309Y-97356018D01*
X112237312Y-97356020D01*
X112319369Y-97410848D01*
X112389152Y-97480631D01*
X112437225Y-97552578D01*
X112443982Y-97562691D01*
X112444448Y-97563817D01*
X112481747Y-97653864D01*
X112501000Y-97750656D01*
X112501000Y-97849344D01*
X112481747Y-97946136D01*
X112481746Y-97946138D01*
X112443982Y-98037309D01*
X112443980Y-98037312D01*
X112389152Y-98119369D01*
X112319369Y-98189152D01*
X112252028Y-98234147D01*
X112237309Y-98243982D01*
X112162976Y-98274771D01*
X112146136Y-98281747D01*
X112073379Y-98296219D01*
X112049345Y-98301000D01*
X111950655Y-98301000D01*
X111926621Y-98296219D01*
X111853864Y-98281747D01*
X111837024Y-98274771D01*
X111762691Y-98243982D01*
X111747972Y-98234147D01*
X111680631Y-98189152D01*
X111610848Y-98119369D01*
X111556020Y-98037312D01*
X111556018Y-98037309D01*
X111518254Y-97946138D01*
X111518253Y-97946136D01*
X111499000Y-97849344D01*
X111499000Y-97750656D01*
X111518253Y-97653864D01*
X111555552Y-97563817D01*
X111556018Y-97562691D01*
X111562775Y-97552578D01*
X111610848Y-97480631D01*
X111680631Y-97410848D01*
X111762688Y-97356020D01*
X111762691Y-97356018D01*
X111853862Y-97318254D01*
X111853861Y-97318254D01*
X111853864Y-97318253D01*
X111926621Y-97303781D01*
X111950655Y-97299000D01*
X112049345Y-97299000D01*
X112073379Y-97303781D01*
G37*
G36*
X187148230Y-94121703D02*
G01*
X187303097Y-94185851D01*
X187442481Y-94278985D01*
X187561015Y-94397519D01*
X187654149Y-94536903D01*
X187718297Y-94691770D01*
X187751000Y-94856183D01*
X187751000Y-95023817D01*
X187718297Y-95188230D01*
X187654149Y-95343097D01*
X187561015Y-95482481D01*
X187442481Y-95601015D01*
X187303097Y-95694149D01*
X187148230Y-95758297D01*
X186983817Y-95791000D01*
X186816183Y-95791000D01*
X186651770Y-95758297D01*
X186496903Y-95694149D01*
X186357519Y-95601015D01*
X186238985Y-95482481D01*
X186145851Y-95343097D01*
X186081703Y-95188230D01*
X186049000Y-95023817D01*
X186049000Y-94856183D01*
X186081703Y-94691770D01*
X186145851Y-94536903D01*
X186238985Y-94397519D01*
X186357519Y-94278985D01*
X186496903Y-94185851D01*
X186651770Y-94121703D01*
X186816183Y-94089000D01*
X186983817Y-94089000D01*
X187148230Y-94121703D01*
G37*
G36*
X184608230Y-94121703D02*
G01*
X184763097Y-94185851D01*
X184902481Y-94278985D01*
X185021015Y-94397519D01*
X185114149Y-94536903D01*
X185178297Y-94691770D01*
X185211000Y-94856183D01*
X185211000Y-95023817D01*
X185178297Y-95188230D01*
X185114149Y-95343097D01*
X185021015Y-95482481D01*
X184902481Y-95601015D01*
X184763097Y-95694149D01*
X184608230Y-95758297D01*
X184443817Y-95791000D01*
X184276183Y-95791000D01*
X184111770Y-95758297D01*
X183956903Y-95694149D01*
X183817519Y-95601015D01*
X183698985Y-95482481D01*
X183605851Y-95343097D01*
X183541703Y-95188230D01*
X183509000Y-95023817D01*
X183509000Y-94856183D01*
X183541703Y-94691770D01*
X183605851Y-94536903D01*
X183698985Y-94397519D01*
X183817519Y-94278985D01*
X183956903Y-94185851D01*
X184111770Y-94121703D01*
X184276183Y-94089000D01*
X184443817Y-94089000D01*
X184608230Y-94121703D01*
G37*
G36*
X126656983Y-90477468D02*
G01*
X126839148Y-90552923D01*
X127003100Y-90662472D01*
X127142528Y-90801900D01*
X127252077Y-90965852D01*
X127327532Y-91148017D01*
X127366000Y-91341410D01*
X127366000Y-91538590D01*
X127327532Y-91731983D01*
X127252077Y-91914148D01*
X127142528Y-92078100D01*
X127003100Y-92217528D01*
X126839148Y-92327077D01*
X126656983Y-92402532D01*
X126463590Y-92441000D01*
X126266410Y-92441000D01*
X126073017Y-92402532D01*
X125890852Y-92327077D01*
X125726900Y-92217528D01*
X125587472Y-92078100D01*
X125477923Y-91914148D01*
X125402468Y-91731983D01*
X125364000Y-91538590D01*
X125364000Y-91341410D01*
X125402468Y-91148017D01*
X125477923Y-90965852D01*
X125587472Y-90801900D01*
X125726900Y-90662472D01*
X125890852Y-90552923D01*
X126073017Y-90477468D01*
X126266410Y-90439000D01*
X126463590Y-90439000D01*
X126656983Y-90477468D01*
G37*
G36*
X131656983Y-90477468D02*
G01*
X131839148Y-90552923D01*
X132003100Y-90662472D01*
X132142528Y-90801900D01*
X132252077Y-90965852D01*
X132327532Y-91148017D01*
X132366000Y-91341410D01*
X132366000Y-91538590D01*
X132327532Y-91731983D01*
X132252077Y-91914148D01*
X132142528Y-92078100D01*
X132003100Y-92217528D01*
X131839148Y-92327077D01*
X131656983Y-92402532D01*
X131463590Y-92441000D01*
X131266410Y-92441000D01*
X131073017Y-92402532D01*
X130890852Y-92327077D01*
X130726900Y-92217528D01*
X130587472Y-92078100D01*
X130477923Y-91914148D01*
X130402468Y-91731983D01*
X130364000Y-91538590D01*
X130364000Y-91341410D01*
X130402468Y-91148017D01*
X130477923Y-90965852D01*
X130587472Y-90801900D01*
X130726900Y-90662472D01*
X130890852Y-90552923D01*
X131073017Y-90477468D01*
X131266410Y-90439000D01*
X131463590Y-90439000D01*
X131656983Y-90477468D01*
G37*
G36*
X184321152Y-82991311D02*
G01*
X184521516Y-83074305D01*
X184701846Y-83194798D01*
X184855202Y-83348154D01*
X184975695Y-83528484D01*
X185058689Y-83728848D01*
X185101000Y-83941561D01*
X185101000Y-84158439D01*
X185058689Y-84371152D01*
X184975695Y-84571516D01*
X184855202Y-84751846D01*
X184701846Y-84905202D01*
X184521516Y-85025695D01*
X184321152Y-85108689D01*
X184108439Y-85151000D01*
X183891561Y-85151000D01*
X183678848Y-85108689D01*
X183478484Y-85025695D01*
X183298154Y-84905202D01*
X183144798Y-84751846D01*
X183024305Y-84571516D01*
X182941311Y-84371152D01*
X182899000Y-84158439D01*
X182899000Y-83941561D01*
X182941311Y-83728848D01*
X183024305Y-83528484D01*
X183144798Y-83348154D01*
X183298154Y-83194798D01*
X183478484Y-83074305D01*
X183678848Y-82991311D01*
X183891561Y-82949000D01*
X184108439Y-82949000D01*
X184321152Y-82991311D01*
G37*
G36*
X113321152Y-79991311D02*
G01*
X113521516Y-80074305D01*
X113701846Y-80194798D01*
X113855202Y-80348154D01*
X113975695Y-80528484D01*
X114058689Y-80728848D01*
X114101000Y-80941561D01*
X114101000Y-81158439D01*
X114058689Y-81371152D01*
X113975695Y-81571516D01*
X113855202Y-81751846D01*
X113701846Y-81905202D01*
X113521516Y-82025695D01*
X113321152Y-82108689D01*
X113108439Y-82151000D01*
X112891561Y-82151000D01*
X112678848Y-82108689D01*
X112478484Y-82025695D01*
X112298154Y-81905202D01*
X112144798Y-81751846D01*
X112024305Y-81571516D01*
X111941311Y-81371152D01*
X111899000Y-81158439D01*
X111899000Y-80941561D01*
X111941311Y-80728848D01*
X112024305Y-80528484D01*
X112144798Y-80348154D01*
X112298154Y-80194798D01*
X112478484Y-80074305D01*
X112678848Y-79991311D01*
X112891561Y-79949000D01*
X113108439Y-79949000D01*
X113321152Y-79991311D01*
G37*
M02*
